<?xml version="1.0" encoding="UTF-8" standalone="no"?>
<svg
   width="20"
   height="20"
   viewBox="0 0 20 20"
   fill="none"
   version="1.1"
   id="svg2"
   sodipodi:docname="flame.svg"
   inkscape:version="1.3.2 (091e20e, 2023-11-25, custom)"
   xmlns:inkscape="http://www.inkscape.org/namespaces/inkscape"
   xmlns:sodipodi="http://sodipodi.sourceforge.net/DTD/sodipodi-0.dtd"
   xmlns="http://www.w3.org/2000/svg"
   xmlns:svg="http://www.w3.org/2000/svg">
  <sodipodi:namedview
     id="namedview2"
     pagecolor="#ffffff"
     bordercolor="#000000"
     borderopacity="0.25"
     inkscape:showpageshadow="2"
     inkscape:pageopacity="0.0"
     inkscape:pagecheckerboard="0"
     inkscape:deskcolor="#d1d1d1"
     inkscape:zoom="40.65"
     inkscape:cx="10"
     inkscape:cy="10"
     inkscape:window-width="1920"
     inkscape:window-height="1009"
     inkscape:window-x="1912"
     inkscape:window-y="52"
     inkscape:window-maximized="1"
     inkscape:current-layer="g1" />
  <g
     clip-path="url(#clip0_1850_3559)"
     id="g1">
    <path
       d="M15.4931 7.59081C15.4392 7.52323 15.3738 7.53651 15.3395 7.5503C15.3108 7.56194 15.245 7.59913 15.2541 7.69233C15.2651 7.80424 15.2712 7.91835 15.2724 8.03151C15.2773 8.50096 15.0889 8.96089 14.7557 9.29335C14.4246 9.62366 13.9892 9.80163 13.5255 9.79647C12.8921 9.78838 12.3668 9.45803 12.0063 8.84112C11.7082 8.331 11.8393 7.67307 11.978 6.97647C12.0591 6.56874 12.1431 6.1471 12.1431 5.74581C12.1431 2.62124 10.0425 0.81858 8.79043 0.022135C8.76453 0.0056897 8.73988 -9.15527e-05 8.71805 -9.15527e-05C8.68254 -9.15527e-05 8.65441 0.0152209 8.64055 0.0245959C8.61367 0.0427991 8.57066 0.0842834 8.58449 0.157721C9.06309 2.69921 7.63559 4.22776 6.12426 5.84604C4.56645 7.51413 2.80078 9.40479 2.80078 12.8146C2.80078 16.7767 6.0241 20 9.98613 20C13.2483 20 16.1245 17.7256 16.9805 14.4691C17.5641 12.2487 16.9525 9.42026 15.4931 7.59081ZM10.1654 18.4663C9.17328 18.5115 8.22977 18.1557 7.5091 17.4666C6.79617 16.7849 6.38727 15.8335 6.38727 14.8564C6.38727 13.0228 7.08836 11.6767 8.97406 9.88967C9.00492 9.86042 9.03652 9.85116 9.06406 9.85116C9.08902 9.85116 9.11066 9.85878 9.12555 9.86592C9.15691 9.88104 9.20848 9.91846 9.20152 9.9994C9.1341 10.784 9.13527 11.4352 9.20496 11.935C9.38309 13.2118 10.3177 14.0696 11.5308 14.0696C12.1256 14.0696 12.6921 13.8458 13.1261 13.4394C13.1764 13.3922 13.2327 13.3982 13.2542 13.4028C13.2828 13.4089 13.321 13.4264 13.3411 13.4748C13.521 13.9092 13.6129 14.3703 13.6143 14.8453C13.6201 16.7564 12.0729 18.3808 10.1654 18.4663Z"
       fill="#5BEBFF"
       id="path1"
       style="fill:#f9f9f9" />
  </g>
  <defs
     id="defs2">
    <clipPath
       id="clip0_1850_3559">
      <path
         d="M0 0H20V20H1C0.447715 20 0 19.5523 0 19V0Z"
         fill="white"
         id="path2" />
    </clipPath>
  </defs>
</svg>
