<svg width="406" height="350" viewBox="0 0 406 350" fill="none" xmlns="http://www.w3.org/2000/svg">
<circle opacity="0.6" cx="200" cy="169" r="168" stroke="#6D6D8F" stroke-dasharray="6 6"/>
<path d="M331.12 237.325C328.66 253.055 321.26 263.875 311.51 271.255C289.92 287.605 256.79 287.075 240.4 285.585C235.96 285.212 231.566 284.412 227.28 283.195C215.28 279.675 201.28 283.005 201.28 283.005C161.46 290.285 141.78 283.005 141.78 283.005C107.22 272.005 96.6198 246.815 93.8798 227.355C92.6341 218.801 92.7117 210.106 94.1098 201.575C101.4 134.055 137.4 121.705 137.4 121.705L196.4 104.825L248.04 132.365C283.47 147.885 304.86 170.365 304.86 170.365C343.52 192.195 331.12 237.325 331.12 237.325Z" fill="#EDF5FA"/>
<path d="M128.64 126.775C128.64 126.775 112.64 162.515 124.57 172.445C124.57 172.445 145.75 192.975 139.13 199.595C139.13 199.595 134.41 206.365 133.31 220.155C133.23 221.105 132.931 222.024 132.436 222.839C131.942 223.655 131.265 224.344 130.46 224.855C127.048 226.973 123.457 228.79 119.73 230.285C118.843 230.639 117.993 231.078 117.19 231.595C114.58 233.265 109.81 237.065 113.3 240.595C113.3 240.595 123.91 225.425 132.51 232.705C132.51 232.705 155.68 269.115 190.77 265.145C190.77 265.145 204.67 263.145 230.49 256.535C230.49 256.535 251.24 251.055 260.4 252.805C260.4 252.805 288.47 255.395 296.33 232.805C297.306 230.126 297.526 227.229 296.965 224.434C296.404 221.638 295.084 219.05 293.15 216.955C290.793 214.54 287.936 212.669 284.78 211.475L231.78 134.685L185.09 108.025L137.4 121.665C134.322 123.082 131.389 124.793 128.64 126.775Z" fill="#C5DAE8"/>
<path d="M179.94 74.3149C179.94 74.3149 168.25 71.9049 170.94 57.3149C170.94 57.3149 172.94 44.8249 185.17 45.4449C185.17 45.4449 190.8 34.1449 202.72 39.4449C202.72 39.4449 206.03 40.1048 210 44.7448L216 48.7448C216 48.7448 227.25 55.3649 220 66.6249C220 66.6249 216.32 71.6248 213.2 73.7448L214.7 60.6649C214.7 60.6649 216.7 54.0449 207.42 50.0649C207.42 50.0649 205.42 60.6649 188.89 64.6349L182.27 76.5549C181.326 76.0048 180.527 75.2367 179.94 74.3149Z" fill="#2F2E41"/>
<path opacity="0.2" d="M207.31 50.665C207.31 50.665 219.58 53.245 218.93 62.925C217.916 66.9965 215.846 70.7286 212.93 73.745" fill="black"/>
<path d="M174.87 91.7651L151.87 100.235C151.87 100.235 141.94 103.545 138.63 117.445L126.05 159.815C126.05 159.815 152.53 167.095 162.46 163.125L163.13 186.295L208.81 192.295C208.81 192.295 213.3 191.295 214.69 178.915L215.43 155.915L218.74 162.535C218.74 162.535 240.58 157.895 252.5 138.035L231.31 111.555C231.31 111.555 221.47 98.9051 211.47 95.5951L202.66 93.0951L174.87 91.7651Z" fill="#FF8767"/>
<path opacity="0.2" d="M126.09 159.815C126.09 159.815 156.55 163.125 158.53 151.205L165.81 123.405L164.47 162.465C164.47 162.465 159.19 168.425 126.09 159.815Z" fill="black"/>
<path opacity="0.2" d="M215.47 155.845V146.075C215.47 146.075 219.47 142.605 216.79 122.075L238.47 153.195C238.47 153.195 232.07 158.495 218.83 162.465L215.47 155.845Z" fill="black"/>
<path d="M251.33 139.875L279.02 168.425L247.53 177.825L228.8 158.825C228.8 158.825 240.86 154.365 251.33 139.875Z" fill="#F9B499"/>
<path opacity="0.2" d="M153.01 189.815C153.01 189.815 134.7 228.005 148.6 240.585L216.79 236.585L252.54 210.465L259.16 194.875L219.37 191.665L216.79 188.965C216.79 188.965 179.27 194.665 153.01 189.815Z" fill="black"/>
<path d="M185.13 35.1852C185.13 35.1852 176.21 28.1252 164.29 39.3852C164.29 39.3852 158.94 41.4552 157.64 57.2952C157.64 57.2952 152.48 103.485 135.21 81.0352C135.21 81.0352 135.79 98.2452 147.39 102.905C147.39 102.905 148.03 101.905 153.18 99.7652L174.87 91.7652L179.51 90.4452L182.16 76.5452C182.16 76.5452 180.36 75.4752 179.94 74.3152C179.94 74.3152 169.55 72.0052 170.56 59.9952C170.774 57.0211 171.67 54.1364 173.18 51.5652L174.87 45.2452L185.13 35.1852Z" fill="#2F2E41"/>
<path opacity="0.2" d="M171.009 65.375C171.009 65.375 173.559 85.065 161.479 96.555L179.479 90.445L182.129 76.545C182.129 76.545 180.329 75.475 179.909 74.315C179.939 74.315 172.899 72.485 171.009 65.375Z" fill="black"/>
<path d="M196.07 223.425C196.07 223.425 227.01 246.275 253.91 258.015L271.06 223.425L213.28 194.295C213.28 194.295 186.14 178.405 175.54 185.685C175.54 185.685 144.34 208.495 143.39 229.865C143.39 229.865 143.1 239.975 157.67 247.255C159.181 247.824 160.751 248.223 162.35 248.445C165.819 248.932 169.355 248.527 172.624 247.267C175.892 246.007 178.785 243.935 181.03 241.245L196.07 223.425Z" fill="#2F2E41"/>
<path d="M271.059 226.255C274.195 224.956 277.465 224.007 280.809 223.425C280.809 223.425 291.399 220.115 291.399 231.365C291.399 242.615 281.699 244.595 260.399 244.935L268.929 227.725L271.059 226.255Z" fill="#F9B499"/>
<path d="M227.8 143.935L220.76 196.755H296.47L302.95 143.935H227.8Z" fill="#7D68FF"/>
<path opacity="0.3" d="M227.8 143.935L220.76 196.755H296.47L302.95 143.935H227.8Z" fill="white"/>
<path d="M227.8 143.935L224.53 143.985L219.24 193.635H212.1L214.98 195.195L220.76 196.755L227.8 143.935Z" fill="#7D68FF"/>
<path opacity="0.3" d="M227.8 143.935L220.76 196.755L214.98 195.195L212.1 193.635H219.24L219.79 188.445L221.27 174.605L224.53 143.975L227.8 143.935Z" fill="white"/>
<path d="M311.47 271.255C295.17 299.255 236.29 293.075 236.29 293.075C221.59 293.225 169.29 297.865 169.29 297.865C86.8002 304.725 93.7701 228.365 93.8701 227.355C96.6101 246.815 107.21 271.995 141.77 283.005C141.77 283.005 161.45 290.285 201.27 283.005C201.27 283.005 215.27 279.675 227.27 283.195C231.557 284.411 235.95 285.212 240.39 285.585C256.79 287.075 289.92 287.605 311.47 271.255Z" fill="#C5DAE8"/>
<path opacity="0.3" d="M220.76 196.755H250.21L275.9 143.935H227.8L220.76 196.755Z" fill="white"/>
<path opacity="0.2" d="M174.87 91.7651L169.16 93.9551C169.16 93.9551 179.16 104.205 192.59 102.905C192.59 102.905 202.59 101.455 207.92 94.5851L202.68 93.0951L174.87 91.7651Z" fill="black"/>
<path d="M185.129 45.475C176.189 44.945 173.129 51.565 173.129 51.565C173.129 51.565 169.519 46.855 174.819 41.135C174.819 41.135 184.609 29.325 191.969 38.985C189.757 39.9028 187.848 41.424 186.459 43.375L185.129 45.475Z" fill="#7D68FF"/>
<path d="M188.78 64.6651L182.16 76.5851L179.47 90.4451L174.83 91.7651C175.256 92.2733 175.717 92.7511 176.21 93.1951C178.7 95.4437 181.709 97.0406 184.967 97.8432C188.224 98.6459 191.63 98.6294 194.88 97.7951C200.72 96.2851 202.64 93.0951 202.64 93.0951L199.99 91.6951V87.1351C201.99 89.1351 209.26 83.8251 209.26 83.8251C213.26 80.5151 212.57 77.8251 212.57 77.8251L214.57 60.6151C215.9 53.3351 207.29 50.0151 207.29 50.0151C207.29 50.0151 205.33 60.6651 188.78 64.6651Z" fill="#F9B499"/>
<path d="M200.029 87.1352C200.029 87.1352 191.629 83.0152 189.649 81.0352C189.649 81.0352 191.209 88.4552 200.029 91.6952V87.1352Z" fill="#F7A48B"/>
<path d="M185.13 77.2049C188.604 77.2049 191.42 74.241 191.42 70.5849C191.42 66.9287 188.604 63.9648 185.13 63.9648C181.656 63.9648 178.84 66.9287 178.84 70.5849C178.84 74.241 181.656 77.2049 185.13 77.2049Z" fill="#F9B499"/>
<path d="M211.91 233.955C211.91 233.955 201.36 237.325 176.91 237.325C176.91 237.325 164.33 236.665 171.61 251.235C171.61 251.235 172.94 257.185 188.16 255.235C188.16 255.235 203.54 252.645 216.7 245.995L211.91 233.955Z" fill="#F9B499"/>
<path d="M221.27 174.605L219.8 188.445L219.37 191.645L216.79 188.945C204.21 192.255 172.43 191.595 172.43 191.595C154.56 190.935 145.95 188.365 145.95 188.365C134.7 186.465 137.8 162.465 137.8 162.465C155.46 166.465 162.5 163.125 162.5 163.125L162.72 170.675L211.58 177.825C212.835 176.574 214.364 175.633 216.045 175.074C217.727 174.515 219.515 174.354 221.27 174.605Z" fill="#F9B499"/>
<path d="M137.799 162.465C137.799 162.465 155.219 166.465 162.499 163.125L162.639 167.945C154.486 170.67 145.996 172.258 137.409 172.665C137.409 172.665 136.919 166.435 137.799 162.465Z" fill="#F7A48B"/>
<path d="M301.53 153.195C301.53 153.195 305.53 149.195 308.15 152.535C308.15 152.535 309.47 153.855 303.52 157.825L301.52 159.225C301.52 159.225 306.15 161.805 303.52 166.435C304.269 167.226 304.738 168.241 304.858 169.324C304.977 170.407 304.739 171.499 304.18 172.435C304.136 173.444 303.799 174.419 303.212 175.241C302.624 176.062 301.811 176.696 300.87 177.065C300.87 177.065 301.53 181.065 297.56 181.705C297.56 181.705 290.28 183.705 290.28 180.375C290.28 180.375 289.28 178.655 292.08 177.865C292.08 177.865 290.94 175.085 294.25 175.085C294.25 175.085 288.95 174.415 293.59 170.445C293.59 170.445 287.43 169.725 292.83 166.775L300.21 164.485L301.53 153.195Z" fill="#F9B499"/>
<path opacity="0.2" d="M244.51 253.575L235.39 248.755L268.93 227.725L244.51 253.575Z" fill="black"/>
<path d="M281.47 218.795C274.19 224.795 221.89 259.175 221.89 259.175L210.63 230.665L253.91 196.815C258.775 192.341 264.229 188.553 270.12 185.555C288.53 176.665 296.47 187.855 296.47 187.855C309.47 203.255 281.47 218.795 281.47 218.795Z" fill="#2F2E41"/>
<path opacity="0.2" d="M271.06 193.855L225.2 228.055C217.38 233.265 221.73 258.315 221.88 259.155L210.63 230.665L253.91 196.815C258.775 192.341 264.229 188.553 270.12 185.555L271.06 193.855Z" fill="black"/>
<rect x="25" y="187" width="360" height="150" fill="#F3F3FC"/>
<rect y="187" width="406" height="13" fill="#D7D7F3"/>
<circle cx="205" cy="265" r="55" fill="white"/>
<path d="M175.747 274.15L182.292 267.92C185.687 264.735 186.352 262.565 186.352 260.185C186.352 255.845 182.922 253.15 177.602 253.15C173.577 253.15 170.182 254.655 168.292 257.21L171.477 259.66C172.842 257.91 174.837 257.105 177.217 257.105C180.227 257.105 181.767 258.4 181.767 260.64C181.767 262.005 181.347 263.44 178.967 265.715L169.237 274.955V278H187.297V274.15H175.747ZM210.2 268.585H205.86V263.65H201.59V268.585H193.575L204.95 253.5H200.085L188.01 269.285V272.435H201.45V278H205.86V272.435H210.2V268.585ZM209.364 281.5H213.284L224.834 248.53H220.914L209.364 281.5ZM223.674 253.5V261.515H227.909V257.35H237.534L228.329 278H233.194L242.714 256.545V253.5H223.674Z" fill="#E0E0F1"/>
<line x1="379.5" y1="200" x2="379.5" y2="350" stroke="#D7D7F3" stroke-width="11"/>
<line x1="30.5" y1="200" x2="30.5" y2="350" stroke="#D7D7F3" stroke-width="11"/>
<circle cx="55" cy="84" r="23" fill="white"/>
<circle cx="336" cy="66" r="25" fill="white"/>
<g clip-path="url(#clip0_760_342)">
<path fill-rule="evenodd" clip-rule="evenodd" d="M55.8322 97.635L52.3484 90.9112L50.3059 91.9112C48.0897 92.9862 43.5772 84.1725 45.7447 83.0112L47.8047 81.9962L44.3497 75.25L42.2659 76.2787C35.1384 79.9937 46.4547 101.99 53.7447 98.6575C53.8647 98.6037 55.8247 97.6387 55.8322 97.635ZM61.9597 94.3812L63.2609 96.5187C61.9872 97.3612 60.5772 98.015 59.0722 98.44L57.9047 96.16C59.3734 95.81 60.7422 95.2 61.9597 94.3812ZM65.6122 90.6037L67.9647 91.5437C67.1172 92.9962 66.0322 94.2925 64.7647 95.3825L63.4434 93.2125C64.2784 92.4475 65.0097 91.5687 65.6122 90.6037ZM66.4859 88.9337C67.1384 87.42 67.4997 85.7512 67.4997 84C67.4997 77.1012 61.8984 71.5 54.9997 71.5C51.8784 71.5 49.0234 72.6462 46.8322 74.54L45.6659 72.26C48.2284 70.22 51.4722 69 54.9997 69C63.2784 69 69.9997 75.7212 69.9997 84C69.9997 86.08 69.5747 88.0612 68.8084 89.8625L66.4859 88.9337ZM62.0972 87.75H60.2997V85.8125H56.6997V84.5762L59.7747 79.6262H62.0972V84.3887H63.0722V85.8125H62.0972V87.75ZM55.7597 87.75H49.9997V86.6012L51.0497 85.6512C52.8247 84.0637 53.6872 83.1512 53.7122 82.2C53.7122 81.5375 53.3122 81.0125 52.3747 81.0125C51.6747 81.0125 51.0622 81.3625 50.6372 81.6875L50.0997 80.3262C50.7122 79.8637 51.6622 79.4887 52.7622 79.4887C54.5984 79.4887 55.6097 80.5625 55.6097 82.0375C55.6097 83.4012 54.6234 84.4887 53.4497 85.5387L52.6997 86.1637V86.1887H55.7597V87.75ZM60.2997 84.3887V82.5887C60.2997 82.1 60.3247 81.6 60.3622 81.075H60.3122C60.0497 81.6 59.8372 82.075 59.5622 82.5887L58.4747 84.3637V84.3887H60.2997Z" fill="#545479"/>
</g>
<g clip-path="url(#clip1_760_342)">
<path fill-rule="evenodd" clip-rule="evenodd" d="M325.67 51.8728L329.699 50L335.423 61.1761L331.564 63.0772C330.802 64.8608 334.623 71.9867 336.235 72.1042C336.363 72.0221 340.019 70.2229 340.019 70.2229L345.841 81.4599C345.841 81.4599 341.926 83.3781 341.798 83.4376C340.951 83.8243 340.077 84.0028 339.189 84C331.186 83.9731 322.067 69.2242 322 59.4492C321.978 56.0392 323.056 53.2343 325.67 51.8728ZM328.404 53.6777L326.954 54.3917C319.455 58.3045 332.872 84.4037 340.622 80.8635L341.999 80.192L338.782 73.9827L337.329 74.6925C332.848 76.8841 325.624 63.0489 330.167 60.6137L331.594 59.9082L328.404 53.6777ZM350.334 74.0833H348.917V55.6667H350.334V74.0833ZM347.5 71.25H346.084V58.5H347.5V71.25ZM353.167 69.8333H351.75V59.9167H353.167V69.8333ZM344.667 68.4167H343.25V61.3333H344.667V68.4167ZM341.834 67H340.417V62.75H341.834V67ZM356 67H354.584V62.75H356V67ZM339 65.5833H337.584V64.1667H339V65.5833Z" fill="#545479"/>
</g>
<defs>
<clipPath id="clip0_760_342">
<rect width="30" height="30" fill="white" transform="translate(40 69)"/>
</clipPath>
<clipPath id="clip1_760_342">
<rect width="34" height="34" fill="white" transform="translate(322 50)"/>
</clipPath>
</defs>
</svg>
