<?xml version="1.0" encoding="UTF-8" standalone="no"?>
<svg
   width="998"
   height="464"
   viewBox="0 0 998 464"
   fill="none"
   version="1.1"
   id="svg350"
   sodipodi:docname="server-map.svg"
   inkscape:version="1.3.2 (091e20e, 2023-11-25, custom)"
   xmlns:inkscape="http://www.inkscape.org/namespaces/inkscape"
   xmlns:sodipodi="http://sodipodi.sourceforge.net/DTD/sodipodi-0.dtd"
   xmlns="http://www.w3.org/2000/svg"
   xmlns:svg="http://www.w3.org/2000/svg">
  <defs
     id="defs350" />
  <sodipodi:namedview
     id="namedview350"
     pagecolor="#ffffff"
     bordercolor="#000000"
     borderopacity="0.25"
     inkscape:showpageshadow="2"
     inkscape:pageopacity="0.0"
     inkscape:pagecheckerboard="0"
     inkscape:deskcolor="#d1d1d1"
     inkscape:zoom="1.4058116"
     inkscape:cx="430.71205"
     inkscape:cy="232.96151"
     inkscape:window-width="1920"
     inkscape:window-height="1009"
     inkscape:window-x="-8"
     inkscape:window-y="52"
     inkscape:window-maximized="1"
     inkscape:current-layer="svg350" />
  <path
     d="M432.037 25.6481L431.549 18.0693H414.791L414.3 25.6481C419.223 27.6284 423.17 36.2768 423.17 41.6767C423.17 36.2737 427.113 27.6284 432.037 25.6481Z"
     fill="#4CD9ED"
     id="path1"
     style="fill:#008000" />
  <rect
     x="394.7601"
     y="10.185444"
     width="58.6759"
     height="22.811104"
     rx="13.669"
     fill="#4cd9ed"
     id="rect2"
     style="fill:#008000;stroke-width:0.913461" />
  <path
     d="M472.643 328.937L472.722 328.773L471.303 327.316L471.717 327.994L472.643 328.937Z"
     fill="white"
     id="path5" />
  <path
     d="M469.54 85.3355V105.873L468.045 99.1448V78.6123L469.54 85.3355Z"
     fill="#E0E7F2"
     id="path6" />
  <path
     d="M498.646 86.1774V106.715L486.934 104.459V83.9219L498.646 86.1774Z"
     fill="#E0E7F2"
     id="path7" />
  <path
     d="M500.922 78.6123V99.1448L498.646 106.715V86.1777L500.922 78.6123Z"
     fill="#E0E7F2"
     id="path8" />
  <path
     d="M481.856 87.9637V108.501L469.539 105.873V85.3354L481.856 87.9637Z"
     fill="#E0E7F2"
     id="path9" />
  <path
     d="M486.934 83.9219V104.459L481.855 108.501V87.9635L486.934 83.9219Z"
     fill="#E0E7F2"
     id="path10" />
  <path
     d="M489.648 77.2617L500.922 78.6122L498.646 86.1775L486.935 83.922L481.856 87.9636L469.54 85.3353L468.045 78.6122L479.254 79.9965L489.648 77.2617Z"
     fill="#F8FAFF"
     id="path11" />
  <path
     d="M597.043 87.3779V107.915L588.921 109.551V89.0139L597.043 87.3779Z"
     fill="#E0E7F2"
     id="path12" />
  <path
     d="M588.921 89.0137V109.551L575.348 114.696V94.1637L588.921 89.0137Z"
     fill="#E0E7F2"
     id="path13" />
  <path
     d="M590.62 83.3701L597.043 87.3779L588.921 89.0139L575.347 94.164L582.539 98.7622L574.053 101.647L563.738 92.5086L576.19 89.6093L590.62 83.3701Z"
     fill="#F8FAFF"
     id="path14" />
  <path
     d="M574.053 101.648V122.18L563.738 113.042V92.5093L574.053 101.648Z"
     fill="#E0E7F2"
     id="path15" />
  <path
     d="M582.539 98.7622V119.3L574.053 122.179V101.647L582.539 98.7622Z"
     fill="#E0E7F2"
     id="path16" />
  <path
     d="M543.099 106.914V127.451L525.746 130.128V109.595L543.099 106.914Z"
     fill="#E0E7F2"
     id="path17" />
  <path
     d="M501.438 111.71V132.247L501.322 132.199V111.662L501.438 111.71Z"
     fill="#E0E7F2"
     id="path18" />
  <path
     d="M501.322 111.662V132.199L501.136 132.301V111.768L501.322 111.662Z"
     fill="#E0E7F2"
     id="path19" />
  <path
     d="M506.503 113.874V134.406L493.558 136.101V115.563L506.503 113.874Z"
     fill="#E0E7F2"
     id="path20" />
  <path
     d="M493.558 115.563V136.1L484.235 140.776V120.239L493.558 115.563Z"
     fill="#E0E7F2"
     id="path21" />
  <path
     d="M514.398 124.629V145.166L500.28 143.641V123.104L514.398 124.629Z"
     fill="#E0E7F2"
     id="path22" />
  <path
     d="M475.548 128.4V148.937L469.539 146.357V125.82L475.548 128.4Z"
     fill="#E0E7F2"
     id="path23" />
  <path
     d="M455.175 129.019V149.556L453.578 141.376V120.839L455.175 129.019Z"
     fill="#E0E7F2"
     id="path24" />
  <path
     d="M461.444 129.794V150.331L455.174 149.556V129.019L461.444 129.794Z"
     fill="#E0E7F2"
     id="path25" />
  <path
     d="M469.539 125.82V146.357L461.445 150.331V129.794L469.539 125.82Z"
     fill="#E0E7F2"
     id="path26" />
  <path
     d="M489.648 128.298V148.835L485.803 155.147V134.61L489.648 128.298Z"
     fill="#E0E7F2"
     id="path27" />
  <path
     d="M435.177 132.717V153.249L432.98 156.662V136.124L435.177 132.717Z"
     fill="#E0E7F2"
     id="path28" />
  <path
     d="M485.803 134.61V155.147L471.262 156.919V136.381L485.803 134.61Z"
     fill="#E0E7F2"
     id="path29" />
  <path
     d="M595.81 138.303V158.84L592.705 125.452V104.915L595.81 138.303Z"
     fill="#E0E7F2"
     id="path30" />
  <path
     d="M 423.03442,37.039682 423.3234,142.69146"
     stroke="#4CD9ED"
     stroke-width="1.001"
     id="path2"
     style="opacity:0.99;fill:#00ab00;stroke:#1c7e0f;stroke-opacity:1;fill-opacity:1"
     sodipodi:nodetypes="cc" />
  <path
     d="M459.536 138.748V159.285L458.759 157.417V136.884L459.536 138.748Z"
     fill="#E0E7F2"
     id="path31" />
  <path
     d="M424.635 139.256V159.794L421.255 154.508V133.971L424.635 139.256Z"
     fill="#E0E7F2"
     id="path32" />
  <path
     d="M426.283 139.924V160.457L424.635 159.794V139.256L426.283 139.924Z"
     fill="#E0E7F2"
     id="path33" />
  <path
     d="M421.33 142.374V162.906L417.62 166.512V145.975L421.33 142.374Z"
     fill="#E0E7F2"
     id="path34" />
  <path
     d="M417.619 145.975V166.512L407.025 169.193V148.656L417.619 145.975Z"
     fill="#E0E7F2"
     id="path35" />
  <path
     d="M429.21 128.428L435.178 132.717L432.981 136.124L437.808 143.481L442.998 144.091L438.99 149.706L423.14 152.271L421.255 148.341L424.42 147.204L426.282 139.924L424.635 139.256L421.255 133.97L429.21 128.428Z"
     fill="#F8FAFF"
     id="path36" />
  <path
     d="M414.906 138.303L421.329 142.374L417.619 145.975L407.025 148.657L410.069 140.961L414.906 138.303Z"
     fill="#F8FAFF"
     id="path37" />
  <path
     d="M442.998 144.092V164.629L438.99 170.244V149.707L442.998 144.092Z"
     fill="#E0E7F2"
     id="path38" />
  <path
     d="M438.99 149.707V170.244L423.14 172.804V152.272L438.99 149.707Z"
     fill="#E0E7F2"
     id="path39" />
  <path
     d="M423.14 152.272V172.805L421.255 168.879V148.342L423.14 152.272Z"
     fill="#E0E7F2"
     id="path40" />
  <path
     d="M605.575 161.004V181.537L595.81 158.841V138.303L605.575 161.004Z"
     fill="#E0E7F2"
     id="path41" />
  <path
     d="M433.785 162.562V183.099L426.785 176.28V155.742L433.785 162.562Z"
     fill="#E0E7F2"
     id="path42" />
  <path
     d="M487.866 162.276V182.814L473.761 184.668V164.135L487.866 162.276Z"
     fill="#E0E7F2"
     id="path43" />
  <path
     d="M466.463 167.693V188.225L448.705 189.973V169.44L466.463 167.693Z"
     fill="#E0E7F2"
     id="path44" />
  <path
     d="M448.705 169.44V189.973L445.688 194.126V173.589L448.705 169.44Z"
     fill="#E0E7F2"
     id="path45" />
  <path
     d="M500.908 174.348V194.881L487.865 182.814V162.276L500.908 174.348Z"
     fill="#E0E7F2"
     id="path46" />
  <path
     d="M479.547 178.061V198.598L466.462 188.225V167.693L479.547 178.061Z"
     fill="#E0E7F2"
     id="path47" />
  <path
     d="M605.576 161.003V181.536L580.388 199.406V178.874L605.576 161.003Z"
     fill="#E0E7F2"
     id="path48" />
  <path
     d="M580.389 178.874V199.406L540.99 200.51V179.973L580.389 178.874Z"
     fill="#E0E7F2"
     id="path49" />
  <path
     d="M490.225 179.097V199.629L477.08 206.468V185.936L490.225 179.097Z"
     fill="#E0E7F2"
     id="path50" />
  <path
     d="M445.688 173.589V194.126L432.124 206.479V185.946L445.688 173.589Z"
     fill="#E0E7F2"
     id="path51" />
  <path
     d="M432.124 185.946V206.478L407.342 206.977V186.444L432.124 185.946Z"
     fill="#E0E7F2"
     id="path52" />
  <path
     d="M407.342 186.444V206.977L404.112 199.76V179.228L407.342 186.444Z"
     fill="#E0E7F2"
     id="path53" />
  <path
     d="M508.914 188.283V208.816L498.646 202.654V182.117L508.914 188.283Z"
     fill="#E0E7F2"
     id="path54" />
  <path
     d="M521.157 181.008V201.546L508.915 208.816V188.283L521.157 181.008Z"
     fill="#E0E7F2"
     id="path55" />
  <path
     d="M529.014 189.706V210.239L521.156 201.546V181.008L529.014 189.706Z"
     fill="#E0E7F2"
     id="path56" />
  <path
     d="M540.99 179.973V200.51L529.013 210.239V189.706L540.99 179.973Z"
     fill="#E0E7F2"
     id="path57" />
  <path
     d="M595.81 138.303L592.691 104.779L579.569 105.442L543.099 113.206L525.746 109.595L543.099 106.914L536.876 102.277L515.599 100.408L474.813 106.081L453.573 120.839L455.17 129.019L461.44 129.794L469.535 125.82L475.539 128.4L471.252 136.381L485.794 134.605L489.639 128.293L484.22 120.234L493.544 115.558L506.489 113.869L500.266 123.099L514.379 124.624L500.266 140.215L468.031 142.228L464.698 133.826L458.74 136.875L459.522 138.743L445.544 151.672L444.464 152.136L426.766 155.742L433.767 162.562L424.704 170.936L406.583 170.583L404.093 179.223L407.323 186.439L432.105 185.941L445.665 173.584L448.681 169.435L466.439 167.688L479.524 178.056L477.061 185.931L490.207 179.092L473.743 164.131L487.842 162.277L500.889 174.344L498.627 182.117L508.891 188.279L521.133 181.004L528.986 189.702L540.963 179.973L580.361 178.874L605.548 161.004L595.782 138.308L595.81 138.303ZM501.322 111.802L501.136 111.764L501.322 111.662L501.439 111.71L501.322 111.802Z"
     fill="#F8FAFF"
     id="path58" />
  <path
     d="M605.575 104.556V125.094L598.574 115.946V95.4082L605.575 104.556Z"
     fill="#E0E7F2"
     id="path59" />
  <path
     d="M625.196 104.557V125.094L624.353 116.909V96.3716L625.196 104.557Z"
     fill="#E0E7F2"
     id="path60" />
  <path
     d="M922.591 111.885V132.422L899.894 134.852V114.315L922.591 111.885Z"
     fill="#E0E7F2"
     id="path61" />
  <path
     d="M873.096 119.039V139.571L858.266 142.098V121.56L873.096 119.039Z"
     fill="#E0E7F2"
     id="path62" />
  <path
     d="M911.642 121.561V142.098L881.088 145.37V124.833L911.642 121.561Z"
     fill="#E0E7F2"
     id="path63" />
  <path
     d="M857.112 128.453V148.99L848.249 146.875V126.338L857.112 128.453Z"
     fill="#E0E7F2"
     id="path64" />
  <path
     d="M848.249 126.338V146.875L838.032 148.99V128.453L848.249 126.338Z"
     fill="#E0E7F2"
     id="path65" />
  <path
     d="M858.266 121.561V142.098L857.112 148.99V128.453L858.266 121.561Z"
     fill="#E0E7F2"
     id="path66" />
  <path
     d="M838.032 128.453V148.99L829.197 162.277V141.744L838.032 128.453Z"
     fill="#E0E7F2"
     id="path67" />
  <path
     d="M880.121 143.777V164.309L873.097 152.804V132.271L880.121 143.777Z"
     fill="#E0E7F2"
     id="path68" />
  <path
     d="M851.154 146.861V167.398L843.524 164.31V143.777L851.154 146.861Z"
     fill="#E0E7F2"
     id="path69" />
  <path
     d="M899.894 140.646V161.178L894.188 168.109V147.577L899.894 140.646Z"
     fill="#E0E7F2"
     id="path70" />
  <path
     d="M894.187 147.577V168.109L880.12 164.31V143.777L894.187 147.577Z"
     fill="#E0E7F2"
     id="path71" />
  <path
     d="M866.635 155.108V175.641L859.132 178.564V158.027L866.635 155.108Z"
     fill="#E0E7F2"
     id="path72" />
  <path
     d="M845.461 138.898L863.368 146.042L866.636 155.108L859.132 158.027L851.154 146.86L843.524 143.777L845.461 138.898Z"
     fill="#E0E7F2"
     id="path73" />
  <path
     d="M859.132 158.027V178.564L851.153 167.398V146.86L859.132 158.027Z"
     fill="#E0E7F2"
     id="path74" />
  <path
     d="M868.255 166.28V186.817L865.104 182.519V161.981L868.255 166.28Z"
     fill="#E0E7F2"
     id="path75" />
  <path
     d="M848.151 169.88V190.418L836.891 191.478V170.945L848.151 169.88Z"
     fill="#E0E7F2"
     id="path76" />
  <path
     d="M866.561 173.385V193.917L863.573 190.946V170.408L866.561 173.385Z"
     fill="#E0E7F2"
     id="path77" />
  <path
     d="M874.716 160.108L888.118 167.925L881.745 173.385L874.716 170.021L866.561 173.385L863.573 170.409L868.256 166.28L865.104 161.982L874.716 160.108Z"
     fill="#F8FAFF"
     id="path78" />
  <path
     d="M888.118 167.926V188.458L881.745 193.918V173.386L888.118 167.926Z"
     fill="#E0E7F2"
     id="path79" />
  <path
     d="M881.745 173.385V193.918L874.716 190.554V170.021L881.745 173.385Z"
     fill="#E0E7F2"
     id="path80" />
  <path
     d="M874.716 170.021V190.554L866.561 193.918V173.385L874.716 170.021Z"
     fill="#E0E7F2"
     id="path81" />
  <path
     d="M836.891 170.946V191.478L834.866 199.078V178.54L836.891 170.946Z"
     fill="#E0E7F2"
     id="path82" />
  <path
     d="M826.106 181.212V201.749L812.724 195.694V175.157L826.106 181.212Z"
     fill="#E0E7F2"
     id="path83" />
  <path
     d="M812.723 175.157V195.694L802.315 202.674V182.136L812.723 175.157Z"
     fill="#E0E7F2"
     id="path84" />
  <path
     d="M867.943 186.376V206.914L866.635 199.077V178.54L867.943 186.376Z"
     fill="#E0E7F2"
     id="path85" />
  <path
     d="M549.155 188.356V208.889L529.013 210.665V190.133L549.155 188.356Z"
     fill="#E0E7F2"
     id="path86" />
  <path
     d="M816.103 186.376V206.914L814.064 214.068V193.53L816.103 186.376Z"
     fill="#E0E7F2"
     id="path87" />
  <path
     d="M550.514 194.446V214.983L549.155 208.889V188.356L550.514 194.446Z"
     fill="#E0E7F2"
     id="path88" />
  <path
     d="M837.078 195.297V215.83L826.106 201.749V181.212L837.078 195.297Z"
     fill="#E0E7F2"
     id="path89" />
  <path
     d="M843.901 192.006V212.543L837.077 215.83V195.297L843.901 192.006Z"
     fill="#E0E7F2"
     id="path90" />
  <path
     d="M881.088 192.819V213.356L867.92 217.364V196.831L881.088 192.819Z"
     fill="#E0E7F2"
     id="path91" />
  <path
     d="M873.096 175.399L881.088 192.819L867.92 196.832L858.266 204.499L849.114 198.056L867.943 186.377L866.635 178.54L873.096 175.399Z"
     fill="#F8FAFF"
     id="path92" />
  <path
     d="M867.92 196.832V217.364L858.266 225.036V204.499L867.92 196.832Z"
     fill="#E0E7F2"
     id="path93" />
  <path
     d="M858.266 204.499V225.036L849.114 218.593V198.056L858.266 204.499Z"
     fill="#E0E7F2"
     id="path94" />
  <path
     d="M594.553 202.717V223.25L588.92 227.408V206.875L594.553 202.717Z"
     fill="#E0E7F2"
     id="path95" />
  <path
     d="M556.598 210.515V231.052L545.976 224.833V204.295L556.598 210.515Z"
     fill="#E0E7F2"
     id="path96" />
  <path
     d="M634.896 213.705V234.237L594.553 223.25V202.717L634.896 213.705Z"
     fill="#E0E7F2"
     id="path97" />
  <path
     d="M560.28 220.253V240.791L556.598 231.052V210.515L560.28 220.253Z"
     fill="#E0E7F2"
     id="path98" />
  <path
     d="M663.197 227.442V247.979L634.896 234.238V213.705L663.197 227.442Z"
     fill="#E0E7F2"
     id="path99" />
  <path
     d="M827.865 209.237V229.775L800.016 250.51V229.978L827.865 209.237Z"
     fill="#E0E7F2"
     id="path100" />
  <path
     d="M724.707 230.559V251.096L720.471 251.517V230.985L724.707 230.559Z"
     fill="#E0E7F2"
     id="path101" />
  <path
     d="M671.306 232.417V252.95L664.468 255.196V234.663L671.306 232.417Z"
     fill="#E0E7F2"
     id="path102" />
  <path
     d="M664.468 234.663V255.196L663.198 247.979V227.441L664.468 234.663Z"
     fill="#E0E7F2"
     id="path103" />
  <path
     d="M790.613 230.496V251.029L782.458 258.923V238.386L790.613 230.496Z"
     fill="#E0E7F2"
     id="path104" />
  <path
     d="M793.745 238.497V259.034L790.613 251.029V230.496L793.745 238.497Z"
     fill="#E0E7F2"
     id="path105" />
  <path
     d="M805.345 236.899V257.432L793.746 259.034V238.497L805.345 236.899Z"
     fill="#E0E7F2"
     id="path106" />
  <path
     d="M744.978 239.576V260.113L724.706 251.096V230.559L744.978 239.576Z"
     fill="#E0E7F2"
     id="path107" />
  <path
     d="M720.47 230.984V251.517L708.042 260.592V240.06L720.47 230.984Z"
     fill="#E0E7F2"
     id="path108" />
  <path
     d="M576.455 245.632V266.164L560.28 240.791V220.254L576.455 245.632Z"
     fill="#E0E7F2"
     id="path109" />
  <path
     d="M746.663 245.642V266.179L744.978 260.114V239.577L746.663 245.642Z"
     fill="#E0E7F2"
     id="path110" />
  <path
     d="M757.81 245.278V265.815L746.662 266.178V245.641L757.81 245.278Z"
     fill="#E0E7F2"
     id="path111" />
  <path
     d="M839.782 236.536V257.073L838.334 266.802V246.27L839.782 236.536Z"
     fill="#E0E7F2"
     id="path112" />
  <path
     d="M708.042 240.061V260.593L700.626 267.452V246.914L708.042 240.061Z"
     fill="#E0E7F2"
     id="path113" />
  <path
     d="M607.549 247.074V267.606L576.455 266.164V245.631L607.549 247.074Z"
     fill="#E0E7F2"
     id="path114" />
  <path
     d="M632.471 232.04V252.573L607.549 267.606V247.074L632.471 232.04Z"
     fill="#E0E7F2"
     id="path115" />
  <path
     d="M834.867 254.383V274.915L831.231 256.546V236.014L834.867 254.383Z"
     fill="#E0E7F2"
     id="path116" />
  <path
     d="M845.167 255.685V276.217L834.866 274.915V254.383L845.167 255.685Z"
     fill="#E0E7F2"
     id="path117" />
  <path
     d="M760.627 258.008V278.54L757.811 265.815V245.278L760.627 258.008Z"
     fill="#E0E7F2"
     id="path118" />
  <path
     d="M786.089 259.595V280.128L777.44 278.7V258.163L786.089 259.595Z"
     fill="#E0E7F2"
     id="path119" />
  <path
     d="M683.003 261.662V282.2L671.306 252.95V232.417L683.003 261.662Z"
     fill="#E0E7F2"
     id="path120" />
  <path
     d="M856.572 254.383V274.915L844.367 282.771V262.239L856.572 254.383Z"
     fill="#E0E7F2"
     id="path121" />
  <path
     d="M831.231 236.014L839.782 236.536L838.335 246.27L856.572 254.383L844.367 262.238L845.168 255.685L834.867 254.383L831.231 236.014Z"
     fill="#F8FAFF"
     id="path122" />
  <path
     d="M805.345 252.5V273.032L790.762 286.725V266.193L805.345 252.5Z"
     fill="#E0E7F2"
     id="path123" />
  <path
     d="M790.762 266.193V286.725L786.089 280.128V259.596L790.762 266.193Z"
     fill="#E0E7F2"
     id="path124" />
  <path
     d="M771.333 267.539V288.076L760.627 278.541V258.008L771.333 267.539Z"
     fill="#E0E7F2"
     id="path125" />
  <path
     d="M702.4 259.596V280.128L694.859 288.768V268.236L702.4 259.596Z"
     fill="#E0E7F2"
     id="path126" />
  <path
     d="M694.86 268.235V288.768L683.004 282.199V261.662L694.86 268.235Z"
     fill="#E0E7F2"
     id="path127" />
  <path
     d="M702.2 269.779V290.312L700.44 286.711V266.173L702.2 269.779Z"
     fill="#E0E7F2"
     id="path128" />
  <path
     d="M846.653 270.858V291.396L841.514 292.911V272.373L846.653 270.858Z"
     fill="#E0E7F2"
     id="path129" />
  <path
     d="M850.902 275.103V295.636L846.652 291.396V270.858L850.902 275.103Z"
     fill="#E0E7F2"
     id="path130" />
  <path
     d="M857.829 264.62L858.266 274.252L850.902 275.104L846.653 270.859L841.514 272.374L842.957 267.17L857.829 264.62Z"
     fill="#F8FAFF"
     id="path131" />
  <path
     d="M858.266 274.252V294.785L850.902 295.637V275.104L858.266 274.252Z"
     fill="#E0E7F2"
     id="path132" />
  <path
     d="M708.042 275.25V295.782L700.44 294.785V274.252L708.042 275.25Z"
     fill="#E0E7F2"
     id="path133" />
  <path
     d="M704.485 263.986L709.438 270.302L708.042 275.249L700.44 274.252L702.2 269.78L700.44 266.174L704.485 263.986Z"
     fill="#E0E7F2"
     id="path134" />
  <path
     d="M709.438 270.302V290.84L708.042 295.782V275.249L709.438 270.302Z"
     fill="#E0E7F2"
     id="path135" />
  <path
     d="M772.753 276.439V296.977L771.333 288.075V267.538L772.753 276.439Z"
     fill="#E0E7F2"
     id="path136" />
  <path
     d="M664.468 85.0596L699.984 92.9492H736.771L756.982 100.844L777.44 95.3355L797.311 97.4894L853.928 104.556L863.368 100.844L891.674 105.815L914.873 104.556L922.591 111.884L899.894 114.314L911.643 121.56L881.089 124.832L899.894 140.645L894.187 147.577L880.12 143.777L873.096 132.272V119.038L858.266 121.56L857.112 128.453L848.249 126.338L838.032 128.453L829.197 141.744L831.585 142.262L846.401 155.752L848.151 169.881L836.891 170.946L834.866 178.54L843.901 192.006L837.077 195.297L826.106 181.212L812.723 175.157L802.315 182.136L816.103 186.376L814.064 193.53L827.866 209.237L800.016 229.978L805.346 236.899L793.746 238.497L790.613 230.496L782.458 238.385L805.346 252.5L790.762 266.193L786.089 259.595L777.44 258.163V266.193L788.262 282.601L784.892 286.919L772.753 276.44L771.333 267.538L760.627 258.008L757.811 245.278L746.663 245.641L744.977 239.576L724.706 230.559L720.47 230.984L708.042 240.06L700.627 246.914L702.4 259.595L694.859 268.235L683.004 261.662L671.306 232.417L664.468 234.663L663.197 227.441L634.896 213.705L594.553 202.717L588.921 206.875L600.092 221.217L620.341 222.591L632.471 232.04L607.549 247.074L576.455 245.631L560.28 220.254L556.598 210.515L545.976 204.295L550.514 194.445L549.155 188.356L529.013 190.132L540.99 180.268L580.388 179.169L605.576 161.299L595.81 138.603L592.705 105.21L605.576 104.556L598.575 95.4081L610.403 96.168L619.126 112.054L625.196 104.556L624.353 96.3713L664.468 85.0596Z"
     fill="#F8FAFF"
     id="path137" />
  <path
     d="M784.892 286.919V307.456L772.752 296.977V276.44L784.892 286.919Z"
     fill="#E0E7F2"
     id="path138" />
  <path
     d="M788.263 282.602V303.139L784.893 307.456V286.919L788.263 282.602Z"
     fill="#E0E7F2"
     id="path139" />
  <path
     d="M771.119 289.315V309.847L751.476 295.636V275.104L771.119 289.315Z"
     fill="#E0E7F2"
     id="path140" />
  <path
     d="M834.866 275.525V296.062L830.114 311.004V290.467L834.866 275.525Z"
     fill="#E0E7F2"
     id="path141" />
  <path
     d="M830.114 290.467V311.004L825.426 313.618V293.081L830.114 290.467Z"
     fill="#E0E7F2"
     id="path142" />
  <path
     d="M871.616 290.467V311.004L865.569 314.644V294.107L871.616 290.467Z"
     fill="#E0E7F2"
     id="path143" />
  <path
     d="M865.57 294.107V314.644L858.266 308.362V287.824L865.57 294.107Z"
     fill="#E0E7F2"
     id="path144" />
  <path
     d="M866.496 282.567L871.616 290.467L865.57 294.107L858.266 287.824L864.21 287.698L866.496 282.567Z"
     fill="#F8FAFF"
     id="path145" />
  <path
     d="M883.468 301.445V321.982L874.87 314.349V293.816L883.468 301.445Z"
     fill="#E0E7F2"
     id="path146" />
  <path
     d="M897.455 313.884V334.422L883.467 321.982V301.445L897.455 313.884Z"
     fill="#E0E7F2"
     id="path147" />
  <path
     d="M911.643 316.009V336.546L897.455 334.422V313.884L911.643 316.009Z"
     fill="#E0E7F2"
     id="path148" />
  <path
     d="M886.484 292.224L889.826 298.545L894.476 294.765L911.052 298.869L911.643 316.009L897.455 313.884L883.468 301.444L874.87 293.816L886.484 292.224Z"
     fill="#F8FAFF"
     id="path149" />
  <path
     d="M803.86 298.458V318.996L800.016 308.231V287.698L803.86 298.458Z"
     fill="#E0E7F2"
     id="path150" />
  <path
     d="M849.669 296.43V316.963L843.524 319.591V299.054L849.669 296.43Z"
     fill="#E0E7F2"
     id="path151" />
  <path
     d="M819.268 302.287V322.824L803.861 318.995V298.458L819.268 302.287Z"
     fill="#E0E7F2"
     id="path152" />
  <path
     d="M825.426 293.081V313.618L819.268 322.824V302.287L825.426 293.081Z"
     fill="#E0E7F2"
     id="path153" />
  <path
     d="M826.003 271.561L834.866 275.525L830.114 290.467L825.426 293.081L819.268 302.287L803.86 298.458L800.016 287.699L806.123 282.602L817.434 281.193L826.003 271.561Z"
     fill="#F8FAFF"
     id="path154" />
  <path
     d="M775.974 302.287V322.824L771.119 309.847V289.315L775.974 302.287Z"
     fill="#E0E7F2"
     id="path155" />
  <path
     d="M838.26 288.628L849.669 296.43L843.525 299.054L840.28 306.677L833.13 305.927L836.296 296.43L838.26 288.628Z"
     fill="#F8FAFF"
     id="path156" />
  <path
     d="M843.524 299.054V319.591L840.28 327.215V306.677L843.524 299.054Z"
     fill="#E0E7F2"
     id="path157" />
  <path
     d="M840.28 306.677V327.214L833.13 326.464V305.927L840.28 306.677Z"
     fill="#E0E7F2"
     id="path158" />
  <path
     d="M785.954 307.96V328.497L775.974 322.824V302.287L785.954 307.96Z"
     fill="#E0E7F2"
     id="path159" />
  <path
     d="M751.476 275.104L764.118 275.249L778.674 290.467L790.762 295.06V305.926L785.954 307.959L775.974 302.287L771.119 289.315L751.476 275.104Z"
     fill="#F8FAFF"
     id="path160" />
  <path
     d="M790.762 305.927V326.464L785.953 328.497V307.96L790.762 305.927Z"
     fill="#E0E7F2"
     id="path161" />
  <path
     d="M805.266 314.034V334.572L790.762 337.785V317.248L805.266 314.034Z"
     fill="#E0E7F2"
     id="path162" />
  <path
     d="M819.905 318.507V339.044L805.266 334.572V314.034L819.905 318.507Z"
     fill="#E0E7F2"
     id="path163" />
  <path
     d="M829.346 314.063V334.6L819.906 339.044V318.506L829.346 314.063Z"
     fill="#E0E7F2"
     id="path164" />
  <path
     d="M810.698 309.615L829.345 314.063L819.905 318.506L805.266 314.034L790.762 317.248V309.615H810.698Z"
     fill="#F8FAFF"
     id="path165" />
  <path
     d="M317.481 72.6108V93.1482L314.148 97.9255V77.3882L317.481 72.6108Z"
     fill="#E0E7F2"
     id="path166" />
  <path
     d="M314.148 77.3878V97.9251L301.366 97.2136V76.6763L314.148 77.3878Z"
     fill="#E0E7F2"
     id="path167" />
  <path
     d="M301.366 76.6763V97.2136L282.239 101.86V81.3229L301.366 76.6763Z"
     fill="#E0E7F2"
     id="path168" />
  <path
     d="M418.727 81.3232V101.861L400.276 105.292V84.755L418.727 81.3232Z"
     fill="#E0E7F2"
     id="path169" />
  <path
     d="M293.01 88.763V109.3L289.719 106.004V85.4668L293.01 88.763Z"
     fill="#E0E7F2"
     id="path170" />
  <path
     d="M313.873 88.8643V109.402L293.01 109.3V88.7627L313.873 88.8643Z"
     fill="#E0E7F2"
     id="path171" />
  <path
     d="M282.239 81.3232V101.861L268.014 110.355V89.8179L282.239 81.3232Z"
     fill="#E0E7F2"
     id="path172" />
  <path
     d="M268.014 89.8179H234.709V110.35H268.014V89.8179Z"
     fill="#E0E7F2"
     id="path173" />
  <path
     d="M234.709 89.818V110.355L230.231 106.638V86.1055L234.709 89.818Z"
     fill="#E0E7F2"
     id="path174" />
  <path
     d="M317.481 72.6108L314.148 77.3882L301.366 76.6767L282.24 81.3234L268.014 89.818H234.709L230.231 86.1055L236.683 78.0271L255.372 81.8509L260.86 76.2265L289.72 72.6108H317.481Z"
     fill="#F8FAFF"
     id="path175" />
  <path
     d="M400.275 91.5557V112.093L390.849 122.18V101.648L400.275 91.5557Z"
     fill="#E0E7F2"
     id="path176" />
  <path
     d="M390.85 101.647V122.179L379.366 124.604V104.067L390.85 101.647Z"
     fill="#E0E7F2"
     id="path177" />
  <path
     d="M379.366 104.067V124.605L356.25 129.474V108.937L379.366 104.067Z"
     fill="#E0E7F2"
     id="path178" />
  <path
     d="M356.25 108.937V129.474L335.327 133.879V113.347L356.25 108.937Z"
     fill="#E0E7F2"
     id="path179" />
  <path
     d="M409.501 113.346V133.879L397.925 135.268V114.731L409.501 113.346Z"
     fill="#E0E7F2"
     id="path180" />
  <path
     d="M381.009 115.268V135.805L378.575 131.812V111.275L381.009 115.268Z"
     fill="#E0E7F2"
     id="path181" />
  <path
     d="M385.185 108.09L389.532 111.754L393.591 109.576L403.999 108.937L409.501 113.346L397.925 114.731L389.849 117.756L381.009 115.268L378.575 111.275L385.185 108.09Z"
     fill="#E0E7F2"
     id="path182" />
  <path
     d="M397.925 114.73V135.268L389.849 138.288V117.756L397.925 114.73Z"
     fill="#E0E7F2"
     id="path183" />
  <path
     d="M389.848 117.756V138.288L381.009 135.805V115.268L389.848 117.756Z"
     fill="#E0E7F2"
     id="path184" />
  <path
     d="M335.327 113.346V133.879L330.211 144.406V123.874L335.327 113.346Z"
     fill="#E0E7F2"
     id="path185" />
  <path
     d="M311.071 124.557V145.089L304.336 139.261V118.724L311.071 124.557Z"
     fill="#E0E7F2"
     id="path186" />
  <path
     d="M330.211 123.874V144.406L311.071 145.089V124.557L330.211 123.874Z"
     fill="#E0E7F2"
     id="path187" />
  <path
     d="M374.939 72.6108L383.825 77.3253L402.477 76.6767L417.996 74.7938L418.727 81.3234L400.275 84.7551V91.5557L390.849 101.648L379.366 104.068L356.25 108.937L335.327 113.347L330.211 123.874L311.071 124.557L304.335 118.724L311.071 104.261L313.873 88.8645L293.01 88.7629L289.719 85.4666L307.049 80.0165L342.602 78.0271L346.652 74.5227L374.939 72.6108Z"
     fill="#F8FAFF"
     id="path188" />
  <path
     d="M226.917 78.0269V98.5642L221.084 104.368V83.8304L226.917 78.0269Z"
     fill="#E0E7F2"
     id="path189" />
  <path
     d="M221.084 83.8307V104.368L214.046 102.388V81.8511L221.084 83.8307Z"
     fill="#E0E7F2"
     id="path190" />
  <path
     d="M217.174 76.0854L226.917 78.0264L221.084 83.8299L214.046 81.8502L217.174 76.0854Z"
     fill="#F8FAFF"
     id="path191" />
  <path
     d="M177.674 86.3184V106.851L170.584 107.896V87.359L177.674 86.3184Z"
     fill="#E0E7F2"
     id="path192" />
  <path
     d="M170.584 87.3591V107.896L169.179 104.808V84.2759L170.584 87.3591Z"
     fill="#E0E7F2"
     id="path193" />
  <path
     d="M199.882 89.1453V109.678L189.939 108.211V87.6738L199.882 89.1453Z"
     fill="#E0E7F2"
     id="path194" />
  <path
     d="M208.4 87.6738V108.211L199.882 109.678V89.1453L208.4 87.6738Z"
     fill="#E0E7F2"
     id="path195" />
  <path
     d="M184.335 90.3648V110.897L177.674 106.851V86.3184L184.335 90.3648Z"
     fill="#E0E7F2"
     id="path196" />
  <path
     d="M189.939 87.6738V108.211L184.334 110.898V90.365L189.939 87.6738Z"
     fill="#E0E7F2"
     id="path197" />
  <path
     d="M204.481 82.3589L208.4 87.6735L199.882 89.145L189.939 87.6735L184.335 90.3647L177.674 86.3182L170.584 87.3589L169.179 84.2756L176.859 82.3589H187.626H204.481Z"
     fill="#F8FAFF"
     id="path198" />
  <path
     d="M226.917 94.0679V114.605L219.977 117.432V96.8946L226.917 94.0679Z"
     fill="#E0E7F2"
     id="path199" />
  <path
     d="M219.977 96.8946V117.432L214.046 114.605V94.0679L219.977 96.8946Z"
     fill="#E0E7F2"
     id="path200" />
  <path
     d="M225.544 86.2163L226.917 94.0673L219.977 96.894L214.046 94.0673L215.866 88.8639L225.544 86.2163Z"
     fill="#E0E7F2"
     id="path201" />
  <path
     d="M198.56 100.897V121.434L182.575 126.25V105.713L198.56 100.897Z"
     fill="#E0E7F2"
     id="path202" />
  <path
     d="M259.417 107.983V128.52L234.672 129.474V108.936L259.417 107.983Z"
     fill="#E0E7F2"
     id="path203" />
  <path
     d="M171.339 108.937V129.474L150.979 118.956V98.4238L171.339 108.937Z"
     fill="#E0E7F2"
     id="path204" />
  <path
     d="M234.672 108.937V129.474L234.258 135.597V115.065L234.672 108.937Z"
     fill="#E0E7F2"
     id="path205" />
  <path
     d="M234.257 115.064H213.771V135.597H234.257V115.064Z"
     fill="#E0E7F2"
     id="path206" />
  <path
     d="M213.771 115.064V135.597L197.014 139.566V119.029L213.771 115.064Z"
     fill="#E0E7F2"
     id="path207" />
  <path
     d="M266.981 120.248V140.786L244.172 136.023V115.49L266.981 120.248Z"
     fill="#E0E7F2"
     id="path208" />
  <path
     d="M288.449 108.937V129.474L266.981 140.786V120.249L288.449 108.937Z"
     fill="#E0E7F2"
     id="path209" />
  <path
     d="m 422.94537,126.08415 c -4.092,0 -7.418,2.445 -7.418,5.454 0,3.009 3.326,5.455 7.418,5.455 4.092,0 7.418,-2.446 7.418,-5.455 0,-3.009 -3.326,-5.454 -7.418,-5.454 z m 0,8.756 c -2.394,0 -4.343,-1.482 -4.343,-3.302 0,-1.819 1.949,-3.302 4.343,-3.302 2.395,0 4.341,1.48 4.341,3.302 0,1.823 -1.948,3.302 -4.341,3.302 z"
     fill="#3d93fa"
     id="path339-0"
     style="fill:#008000" />
  <path
     d="M66.4845 128.429V148.961L44.3276 147.606V127.069L66.4845 128.429Z"
     fill="#E0E7F2"
     id="path210" />
  <path
     d="M197.014 119.029V139.566L181.607 149.053V128.521L197.014 119.029Z"
     fill="#E0E7F2"
     id="path211" />
  <path
     d="M4.24983 135.239V155.776L0 146.357V125.82L4.24983 135.239Z"
     fill="#E0E7F2"
     id="path212" />
  <path
     d="M44.3273 127.069V147.606L4.24951 155.777V135.239L44.3273 127.069Z"
     fill="#E0E7F2"
     id="path213" />
  <path
     d="M209.294 138.303V158.841L200.999 164.562V144.029L209.294 138.303Z"
     fill="#E0E7F2"
     id="path214" />
  <path
     d="M268.275 148.342V168.879L238.805 175.254V154.716L268.275 148.342Z"
     fill="#E0E7F2"
     id="path215" />
  <path
     d="M69.7663 156.435V176.972L66.4846 148.961V128.429L69.7663 156.435Z"
     fill="#E0E7F2"
     id="path216" />
  <path
     d="M280.982 157.122V177.659L264.416 179.218V158.681L280.982 157.122Z"
     fill="#E0E7F2"
     id="path217" />
  <path
     d="M257.871 162.649V183.182L206.543 196.885V176.352L257.871 162.649Z"
     fill="#E0E7F2"
     id="path218" />
  <path
     d="M206.543 176.353V196.885L182.427 216.672V196.135L206.543 176.353Z"
     fill="#E0E7F2"
     id="path219" />
  <path
     d="M60.275 198.898V219.435L52.2827 197.504V176.972L60.275 198.898Z"
     fill="#E0E7F2"
     id="path220" />
  <path
     d="M162.164 207.568V228.105L137.684 227.505V206.967L162.164 207.568Z"
     fill="#E0E7F2"
     id="path221" />
  <path
     d="M137.685 206.967V227.505L117.962 233.453V212.916L137.685 206.967Z"
     fill="#E0E7F2"
     id="path222" />
  <path
     d="M172.558 218.869V239.402L162.164 228.105V207.567L172.558 218.869Z"
     fill="#E0E7F2"
     id="path223" />
  <path
     d="M182.426 196.135V216.672L172.558 239.402V218.87L182.426 196.135Z"
     fill="#E0E7F2"
     id="path224" />
  <path
     d="M64.8787 227.141V247.678L60.2751 219.435V198.898L64.8787 227.141Z"
     fill="#E0E7F2"
     id="path225" />
  <path
     d="M156.914 231.74V252.277L154.186 249.654V229.116L156.914 231.74Z"
     fill="#E0E7F2"
     id="path226" />
  <path
     d="M172.838 233.661V254.199L156.914 252.277V231.74L172.838 233.661Z"
     fill="#E0E7F2"
     id="path227" />
  <path
     d="M83.3908 234.726V255.264L64.8787 247.679V227.142L83.3908 234.726Z"
     fill="#E0E7F2"
     id="path228" />
  <path
     d="M176.492 223.424L181.044 230.67H187.263V235.408L174.308 235.539L172.838 233.661L156.914 231.739L154.186 229.116L159.339 224.411L166.968 223.971L176.492 223.424Z"
     fill="#F8FAFF"
     id="path229" />
  <path
     d="M174.308 235.539V256.076L172.837 254.198V233.661L174.308 235.539Z"
     fill="#E0E7F2"
     id="path230" />
  <path
     d="M187.263 235.409V255.946L174.308 256.077V235.539L187.263 235.409Z"
     fill="#E0E7F2"
     id="path231" />
  <path
     d="M117.962 212.916V233.453L114.973 258.24V237.703L117.962 212.916Z"
     fill="#E0E7F2"
     id="path232" />
  <path
     d="M180.476 237.703V242.655L172.749 241.435L180.476 237.703Z"
     fill="#E0E7F2"
     id="path233" />
  <path
     d="M205.752 236.87L194.529 242.654L187.691 240.428L205.752 236.87Z"
     fill="#F8FAFF"
     id="path234" />
  <path
     d="M205.752 236.87V257.407L194.529 263.192V242.654L205.752 236.87Z"
     fill="#E0E7F2"
     id="path235" />
  <path
     d="M194.529 242.654V263.192L187.691 260.965V240.428L194.529 242.654Z"
     fill="#E0E7F2"
     id="path236" />
  <path
     d="M180.476 242.654V263.192L172.749 261.972V241.435L180.476 242.654Z"
     fill="#E0E7F2"
     id="path237" />
  <path
     d="M109.355 245.336V265.869L83.3909 255.264V234.727L109.355 245.336Z"
     fill="#E0E7F2"
     id="path238" />
  <path
     d="M146.743 229.91V250.447L137.684 266.304V245.771L146.743 229.91Z"
     fill="#E0E7F2"
     id="path239" />
  <path
     d="M130.078 251.169V271.701L109.355 265.869V245.336L130.078 251.169Z"
     fill="#E0E7F2"
     id="path240" />
  <path
     d="M141.553 253.56V274.097L130.079 271.701V251.168L141.553 253.56Z"
     fill="#E0E7F2"
     id="path241" />
  <path
     d="M155.228 247.717V268.255L154.186 280.82V260.288L155.228 247.717Z"
     fill="#E0E7F2"
     id="path242" />
  <path
     d="M147.348 264.751V285.288L141.552 274.097V253.56L147.348 264.751Z"
     fill="#E0E7F2"
     id="path243" />
  <path
     d="M167.936 91.5557L196.903 94.9923L198.56 100.897L182.575 105.714L203.941 107.838L213.241 99.2178L222.932 104.261H231.101L233.047 98.424L240.15 92.8335L264.178 94.9923L275.438 101.183L288.449 108.937L266.981 120.249L244.172 115.491L259.417 107.984L234.672 108.937L234.257 115.065H213.772L197.014 119.029L181.607 128.521L209.294 138.303L200.999 144.029L206.254 149.053L221.084 138.429L231.101 121.866L249.586 120.442L250.368 128.656L266.543 125.544L268.014 134.876L279.06 142.538L280.982 157.122L264.416 158.681L268.275 148.342L238.805 154.717L257.871 162.65L206.543 176.353L182.426 196.135L172.558 218.87L162.164 207.568L137.684 206.967L117.962 212.916L114.974 237.703L130.381 239.543L146.743 229.91L137.684 245.772L155.228 247.718L154.186 260.288L167.894 264.059L175.854 265.898L168.69 268.758L147.348 264.751L141.552 253.56L130.078 251.169L109.355 245.336L83.3907 234.726L64.8786 227.142L60.275 198.899L52.2827 176.972L69.7661 156.435L66.4845 128.429L44.3276 127.069L4.24983 135.239L0 125.82L34.1383 108.419L84.2798 99.2178L134.808 99.3485L136.023 104.261L171.338 108.937L150.978 98.424L167.936 91.5557Z"
     fill="#F8FAFF"
     id="path244" />
  <path
     d="M168.69 268.758V289.296L147.348 285.288V264.75L168.69 268.758Z"
     fill="#E0E7F2"
     id="path245" />
  <path
     d="M175.854 265.898V286.43L168.69 289.296V268.759L175.854 265.898Z"
     fill="#E0E7F2"
     id="path246" />
  <path
     d="M175.854 265.898V286.43L168.69 289.296V268.759L175.854 265.898Z"
     fill="#E0E7F2"
     id="path247" />
  <path
     d="M171.339 282.05V302.583L168.69 289.296V268.759L171.339 282.05Z"
     fill="#E0E7F2"
     id="path248" />
  <path
     d="M315.847 314.02V334.557L303.316 346.314V325.777L315.847 314.02Z"
     fill="#E0E7F2"
     id="path249" />
  <path
     d="M178.907 331.019V351.556L160.418 327.766V307.234L178.907 331.019Z"
     fill="#E0E7F2"
     id="path250" />
  <path
     d="M200.864 341.784V362.321L178.907 351.556V331.019L200.864 341.784Z"
     fill="#E0E7F2"
     id="path251" />
  <path
     d="M303.316 325.777V346.314L295.421 374.073V353.536L303.316 325.777Z"
     fill="#E0E7F2"
     id="path252" />
  <path
     d="M295.421 353.536V374.073L275.401 380.163V359.63L295.421 353.536Z"
     fill="#E0E7F2"
     id="path253" />
  <path
     d="M206.543 376.309V396.842L200.864 362.321V341.784L206.543 376.309Z"
     fill="#E0E7F2"
     id="path254" />
  <path
     d="M207.008 382.796V403.333L206.543 396.842V376.31L207.008 382.796Z"
     fill="#E0E7F2"
     id="path255" />
  <path
     d="M265.915 387.103H254.403V407.64H265.915V387.103Z"
     fill="#E0E7F2"
     id="path256" />
  <path
     d="M275.401 359.63V380.162L265.915 407.641V387.103L275.401 359.63Z"
     fill="#E0E7F2"
     id="path257" />
  <path
     d="M255.558 395.593V416.131L239.862 422.379V401.842L255.558 395.593Z"
     fill="#E0E7F2"
     id="path258" />
  <path
     d="M239.862 401.842V422.379L236.138 426.145V405.612L239.862 401.842Z"
     fill="#E0E7F2"
     id="path259" />
  <path
     d="M208.954 409.901V430.434L207.008 403.333V382.795L208.954 409.901Z"
     fill="#E0E7F2"
     id="path260" />
  <path
     d="M236.138 405.613V426.145L233.75 436.997V416.46L236.138 405.613Z"
     fill="#E0E7F2"
     id="path261" />
  <path
     d="M215.694 426.319V446.856L208.954 430.433V409.901L215.694 426.319Z"
     fill="#E0E7F2"
     id="path262" />
  <path
     d="M241.658 421.542V442.079L238.302 451.391V430.859L241.658 421.542Z"
     fill="#E0E7F2"
     id="path263" />
  <path
     d="M272.208 435.467V456.005L264.896 456.89V436.358L272.208 435.467Z"
     fill="#E0E7F2"
     id="path264" />
  <path
     d="M264.895 436.359V456.891L260.86 455.071V434.539L264.895 436.359Z"
     fill="#E0E7F2"
     id="path265" />
  <path
     d="M270.965 429.959L272.208 435.467L264.895 436.358L260.86 434.538L261.716 429.959L264.895 431.948L270.537 430.099L270.965 429.959Z"
     fill="#F8FAFF"
     id="path266" />
  <path
     d="M193.16 255.544L204.141 260.646L223.975 259.799L239.811 273.196L258.109 276.144L261.53 290.665L282.328 294.91L300.439 298.163L313.91 304.116L315.847 314.019L303.316 325.776L295.422 353.535L275.401 359.629L265.915 387.103H254.403L255.558 395.593L239.862 401.842L236.138 405.612L233.75 416.459L234.444 417.335L241.659 421.541L238.303 430.859L252.29 441.474L238.303 443.313L215.694 426.319L208.954 409.901L207.008 382.795L206.543 376.309L200.864 341.783L178.907 331.018L160.418 307.233L160.809 295.191L171.339 282.049L168.69 268.758L175.854 265.897L193.16 255.544Z"
     fill="#F8FAFF"
     id="path267" />
  <path
     d="M238.303 443.313V463.85L215.694 446.856V426.319L238.303 443.313Z"
     fill="#E0E7F2"
     id="path268" />
  <path
     d="M252.29 441.474V462.011L238.302 463.851V443.313L252.29 441.474Z"
     fill="#E0E7F2"
     id="path269" />
  <path
     d="M467.692 187.219V207.756L466.598 214.528V193.99L467.692 187.219Z"
     fill="#E0E7F2"
     id="path270" />
  <path
     d="M375.833 255.612V276.145L373.008 252.277V231.74L375.833 255.612Z"
     fill="#E0E7F2"
     id="path271" />
  <path
     d="M604.617 258.081V278.613L597.695 291.014V270.477L604.617 258.081Z"
     fill="#E0E7F2"
     id="path272" />
  <path
     d="M407.556 278.715V299.247L375.833 276.144V255.612L407.556 278.715Z"
     fill="#E0E7F2"
     id="path273" />
  <path
     d="M445.688 273.371V293.908L407.556 299.247V278.715L445.688 273.371Z"
     fill="#E0E7F2"
     id="path274" />
  <path
     d="M457.753 292.936V313.473L445.688 293.908V273.371L457.753 292.936Z"
     fill="#E0E7F2"
     id="path275" />
  <path
     d="M597.695 270.477V291.014L565.219 327.132V306.595L597.695 270.477Z"
     fill="#E0E7F2"
     id="path276" />
  <path
     d="M479.505 315.172V335.704L457.753 313.473V292.936L479.505 315.172Z"
     fill="#E0E7F2"
     id="path277" />
  <path
     d="M604.617 332.466V353.003L598.575 355.738V335.205L604.617 332.466Z"
     fill="#E0E7F2"
     id="path278" />
  <path
     d="M569.669 331.445V351.977L548.289 366.421V345.883L569.669 331.445Z"
     fill="#E0E7F2"
     id="path279" />
  <path
     d="M598.575 335.205V355.738L591.151 373.748V353.211L598.575 335.205Z"
     fill="#E0E7F2"
     id="path280" />
  <path
     d="M598.272 323.478L604.617 332.466L598.575 335.206L591.151 353.212L590.541 352.074L581.371 334.63L591.486 332.084L598.272 323.478Z"
     fill="#F8FAFF"
     id="path281" />
  <path
     d="M590.541 352.074L581.371 334.629V355.167L590.541 372.611L591.151 373.749V353.211L590.541 352.074Z"
     fill="#E0E7F2"
     id="path282" />
  <path
     d="M591.15 353.211V373.749L582.679 382.04V361.503L591.15 353.211Z"
     fill="#E0E7F2"
     id="path283" />
  <path
     d="M591.15 353.211L582.679 361.503L573.225 353.211H591.15Z"
     fill="#F8FAFF"
     id="path284" />
  <path
     d="M582.679 361.503V382.04L573.225 373.749V353.211L582.679 361.503Z"
     fill="#E0E7F2"
     id="path285" />
  <path
     d="M488.265 384.761V405.298L468.045 358.696V338.163L488.265 384.761Z"
     fill="#E0E7F2"
     id="path286" />
  <path
     d="M518.54 387.137V407.675L488.265 405.298V384.761L518.54 387.137Z"
     fill="#E0E7F2"
     id="path287" />
  <path
     d="M549.448 360.966V381.503L518.54 407.675V387.137L549.448 360.966Z"
     fill="#E0E7F2"
     id="path288" />
  <path
     d="M467.691 187.219L466.597 193.99L482.433 199.963L494.563 207.393L503.198 198.046L531.424 203.656L556.323 221.502L568.514 247.717L582.39 261.774L604.616 258.081L597.695 270.476L565.218 306.595L569.668 331.445L548.289 345.883L549.448 360.966L518.54 387.137L488.265 384.76L468.045 338.163L479.505 315.172L457.753 292.935L445.688 273.371L407.555 278.715L375.833 255.612L373.008 231.74L389.532 210.544L416.516 191.081L448.625 187.219H467.691Z"
     fill="#F8FAFF"
     id="path289" />
  <path
     d="M917.075 310.622V331.159L911.643 336.547V316.009L917.075 310.622Z"
     fill="#E0E7F2"
     id="path290" />
  <path
     d="M937.318 313.396V333.933L932.305 340.085V319.548L937.318 313.396Z"
     fill="#E0E7F2"
     id="path291" />
  <path
     d="M911.052 298.87L923.648 301.992L937.319 313.395L932.306 319.547L917.075 310.622L911.643 316.009L911.052 298.87Z"
     fill="#F8FAFF"
     id="path292" />
  <path
     d="M932.305 319.548V340.085L917.074 331.159V310.622L932.305 319.548Z"
     fill="#E0E7F2"
     id="path293" />
  <path
     d="M891.343 323.478V344.015L886.609 353.091V332.554L891.343 323.478Z"
     fill="#E0E7F2"
     id="path294" />
  <path
     d="M874.441 386.14V406.677L858.266 399.886V379.349L874.441 386.14Z"
     fill="#E0E7F2"
     id="path295" />
  <path
     d="M858.266 379.349V399.886L806.123 408.589V388.052L858.266 379.349Z"
     fill="#E0E7F2"
     id="path296" />
  <path
     d="M806.123 388.052V408.589L796.595 399.228V378.691L806.123 388.052Z"
     fill="#E0E7F2"
     id="path297" />
  <path
     d="M874.87 394.432V414.964L874.441 406.678V386.141L874.87 394.432Z"
     fill="#E0E7F2"
     id="path298" />
  <path
     d="M934.53 360.54V381.077L906.513 415.177V394.64L934.53 360.54Z"
     fill="#E0E7F2"
     id="path299" />
  <path
     d="M906.513 394.64V415.177L892.06 418.57V398.033L906.513 394.64Z"
     fill="#E0E7F2"
     id="path300" />
  <path
     d="M908.966 320.187L917.075 343.178L925.859 346.31L934.53 360.54L906.513 394.64L892.06 398.033L874.87 394.432L874.442 386.14L858.266 379.349L806.123 388.052L796.595 378.691L806.123 358.105L836.296 340.695L846.401 334.862L857.577 328.41L866.207 331.982L869.968 324.33L891.343 323.478L886.609 332.553L896.836 339.407L908.966 320.187Z"
     fill="#F8FAFF"
     id="path301" />
  <path
     d="M892.06 398.033V418.57L874.87 414.964V394.432L892.06 398.033Z"
     fill="#E0E7F2"
     id="path302" />
  <path
     d="M898.069 406.75V427.283L883.467 433.411V412.873L898.069 406.75Z"
     fill="#E0E7F2"
     id="path303" />
  <path
     d="M883.467 412.873V433.41L876.644 428.473V407.941L883.467 412.873Z"
     fill="#E0E7F2"
     id="path304" />
  <path
     d="M893.61 403.096L898.07 406.751L883.467 412.874L876.644 407.941L881.666 403.6L888.243 405.444L893.61 403.096Z"
     fill="#E0E7F2"
     id="path305" />
  <path
     d="M997.719 394.64V415.177L982.163 421.223V400.685L997.719 394.64Z"
     fill="#E0E7F2"
     id="path306" />
  <path
     d="M982.163 400.685V421.222L976.093 427.282V406.75L982.163 400.685Z"
     fill="#E0E7F2"
     id="path307" />
  <path
     d="M976.093 406.75V427.283L958.507 431.426V410.889L976.093 406.75Z"
     fill="#E0E7F2"
     id="path308" />
  <path
     d="M958.507 410.889V431.426L944.771 441.136V420.598L958.507 410.889Z"
     fill="#E0E7F2"
     id="path309" />
  <path
     d="M944.771 420.598V441.136L934.53 435.487V414.955L944.771 420.598Z"
     fill="#E0E7F2"
     id="path310" />
  <path
     d="M984.509 386.393L997.719 394.64L982.163 400.686L976.093 406.751L958.507 410.889L944.771 420.599L934.53 414.955L953.857 407.99L964.782 400.241L977.108 398.033L984.509 386.393Z"
     fill="#F8FAFF"
     id="path311" />
  <path
     d="M897.529 338.308L891.343 335.728L896.835 339.407L897.529 338.308Z"
     fill="#C7CED5"
     id="path312" />
  <path
     d="M130.095 88.52L129.606 81.7803H112.848L112.357 88.52C117.281 90.281 121.227 97.9719 121.227 102.774C121.227 97.9692 125.171 90.281 130.095 88.52Z"
     fill="#4CD9ED"
     id="path323"
     style="fill:#008000" />
  <path
     d="M121.219 187.362C119.598 187.362 118.282 188.28 118.282 189.412C118.282 190.545 119.6 191.463 121.219 191.463C122.837 191.463 124.155 190.542 124.155 189.412C124.155 188.283 122.837 187.362 121.219 187.362Z"
     fill="#4CD9ED"
     id="path324"
     style="fill:#008000" />
  <path
     d="M121.219 183.958C117.127 183.958 113.801 186.403 113.801 189.412C113.801 192.421 117.127 194.866 121.219 194.866C125.311 194.866 128.637 192.421 128.637 189.412C128.637 186.403 125.311 183.958 121.219 183.958ZM121.219 192.714C118.824 192.714 116.876 191.232 116.876 189.412C116.876 187.592 118.824 186.11 121.219 186.11C123.614 186.11 125.56 187.59 125.56 189.412C125.56 191.234 123.611 192.714 121.219 192.714Z"
     fill="#3D93FA"
     id="path325"
     style="fill:#008000" />
  <path
     d="M121.219 186.11C118.824 186.11 116.876 187.59 116.876 189.412C116.876 191.234 118.824 192.714 121.219 192.714C123.614 192.714 125.559 191.232 125.559 189.412C125.559 187.592 123.611 186.11 121.219 186.11ZM121.219 191.462C119.598 191.462 118.282 190.541 118.282 189.412C118.282 188.282 119.6 187.361 121.219 187.361C122.838 187.361 124.155 188.28 124.155 189.412C124.155 190.544 122.838 191.462 121.219 191.462Z"
     fill="white"
     id="path326" />
  <path
     d="M121.494 87.5381L121.494 188.779"
     stroke="#4CD9ED"
     stroke-width="1.0338"
     id="path327"
     style="fill:#008000;stroke:#1c7e0f;stroke-opacity:1" />
  <rect
     x="97.692307"
     y="64.313499"
     width="51.6759"
     height="27.337999"
     rx="13.669"
     fill="#4CD9ED"
     id="rect327"
     style="fill:#008000" />
  <path
     d="m 461.90679,152.69636 c -2.395,0 -4.343,1.48 -4.343,3.302 0,1.823 1.948,3.302 4.343,3.302 2.395,0 4.341,-1.482 4.341,-3.302 0,-1.82 -1.949,-3.302 -4.341,-3.302 z m 0,5.353 c -1.621,0 -2.937,-0.921 -2.937,-2.051 0,-1.129 1.318,-2.05 2.937,-2.05 1.619,0 2.937,0.918 2.937,2.05 0,1.132 -1.318,2.051 -2.937,2.051 z"
     fill="#ffffff"
     id="path340-6" />
  <path
     d="M797.656 223.512L797.167 216.772H780.41L779.918 223.512C784.842 225.273 788.789 232.964 788.789 237.766C788.789 232.961 792.732 225.273 797.656 223.512Z"
     fill="#4CD9ED"
     id="path341"
     style="fill:#008000" />
  <path
     d="M788.946 247.706C787.325 247.706 786.01 248.625 786.01 249.757C786.01 250.889 787.328 251.807 788.946 251.807C790.565 251.807 791.883 250.886 791.883 249.757C791.883 248.627 790.565 247.706 788.946 247.706Z"
     fill="#4CD9ED"
     id="path342"
     style="fill:#008000" />
  <path
     d="M788.946 244.302C784.854 244.302 781.528 246.747 781.528 249.756C781.528 252.765 784.854 255.211 788.946 255.211C793.038 255.211 796.364 252.765 796.364 249.756C796.364 246.747 793.038 244.302 788.946 244.302ZM788.946 253.058C786.551 253.058 784.603 251.576 784.603 249.756C784.603 247.936 786.551 246.454 788.946 246.454C791.34 246.454 793.286 247.934 793.286 249.756C793.286 251.578 791.338 253.058 788.946 253.058Z"
     fill="#3D93FA"
     id="path343"
     style="fill:#008000" />
  <path
     d="M788.945 246.454C786.551 246.454 784.603 247.934 784.603 249.756C784.603 251.578 786.551 253.058 788.945 253.058C791.34 253.058 793.286 251.576 793.286 249.756C793.286 247.936 791.338 246.454 788.945 246.454ZM788.945 251.807C787.324 251.807 786.009 250.886 786.009 249.756C786.009 248.626 787.327 247.705 788.945 247.705C790.564 247.705 791.882 248.624 791.882 249.756C791.882 250.888 790.564 251.807 788.945 251.807Z"
     fill="white"
     id="path344" />
  <path
     d="M788.78 210.959V248.563"
     stroke="#4CD9ED"
     stroke-width="1.0338"
     id="path345"
     style="stroke:#1c7e0f;stroke-opacity:1" />
  <rect
     x="756.327"
     y="199.799"
     width="72.6759"
     height="27.338"
     rx="13.669"
     fill="#4CD9ED"
     id="rect345"
     style="fill:#008000" />
  <path
     d="m 770.68567,210.90067 c -0.029,-0.296 -0.155,-0.526 -0.378,-0.69 -0.223,-0.164 -0.525,-0.246 -0.907,-0.246 -0.259,0 -0.478,0.037 -0.657,0.11 -0.179,0.071 -0.316,0.17 -0.411,0.297 -0.093,0.128 -0.14,0.272 -0.14,0.434 -0.004,0.134 0.024,0.252 0.085,0.352 0.064,0.1 0.15,0.187 0.261,0.261 0.11,0.071 0.237,0.133 0.381,0.187 0.145,0.051 0.299,0.095 0.463,0.132 l 0.675,0.162 c 0.328,0.073 0.629,0.171 0.903,0.293 0.275,0.123 0.512,0.273 0.713,0.452 0.2,0.179 0.356,0.389 0.466,0.631 0.113,0.243 0.17,0.52 0.172,0.834 -0.002,0.46 -0.119,0.859 -0.352,1.196 -0.23,0.336 -0.563,0.596 -0.999,0.782 -0.433,0.184 -0.955,0.276 -1.567,0.276 -0.607,0 -1.136,-0.093 -1.586,-0.279 -0.448,-0.186 -0.798,-0.462 -1.05,-0.826 -0.25,-0.367 -0.381,-0.821 -0.393,-1.362 h 1.538 c 0.018,0.252 0.09,0.462 0.217,0.631 0.13,0.167 0.302,0.293 0.518,0.378 0.217,0.083 0.463,0.125 0.738,0.125 0.269,0 0.503,-0.039 0.701,-0.117 0.2,-0.079 0.356,-0.188 0.466,-0.327 0.11,-0.14 0.165,-0.3 0.165,-0.481 0,-0.169 -0.05,-0.311 -0.15,-0.426 -0.098,-0.115 -0.243,-0.213 -0.434,-0.294 -0.188,-0.08 -0.419,-0.154 -0.693,-0.22 l -0.819,-0.205 c -0.634,-0.155 -1.134,-0.396 -1.502,-0.724 -0.367,-0.328 -0.549,-0.769 -0.547,-1.325 -0.002,-0.455 0.119,-0.853 0.364,-1.193 0.247,-0.34 0.586,-0.606 1.017,-0.797 0.431,-0.191 0.92,-0.286 1.468,-0.286 0.558,0 1.045,0.095 1.461,0.286 0.419,0.191 0.744,0.457 0.977,0.797 0.232,0.34 0.352,0.734 0.36,1.182 z m 2.666,5.356 v -5.639 h 1.564 v 5.639 z m 0.786,-6.366 c -0.233,0 -0.432,-0.077 -0.598,-0.231 -0.164,-0.156 -0.246,-0.344 -0.246,-0.561 0,-0.216 0.082,-0.401 0.246,-0.555 0.166,-0.156 0.365,-0.235 0.598,-0.235 0.232,0 0.431,0.079 0.595,0.235 0.166,0.154 0.249,0.339 0.249,0.555 0,0.217 -0.083,0.405 -0.249,0.561 -0.164,0.154 -0.363,0.231 -0.595,0.231 z m 3.595,3.106 v 3.26 h -1.564 v -5.639 h 1.491 v 0.995 h 0.066 c 0.124,-0.328 0.334,-0.587 0.627,-0.778 0.294,-0.193 0.65,-0.29 1.069,-0.29 0.391,0 0.733,0.086 1.024,0.257 0.291,0.171 0.518,0.416 0.679,0.734 0.162,0.316 0.242,0.693 0.242,1.131 v 3.59 h -1.564 v -3.311 c 0.003,-0.345 -0.085,-0.614 -0.264,-0.808 -0.179,-0.196 -0.424,-0.293 -0.738,-0.293 -0.21,0 -0.396,0.045 -0.558,0.135 -0.159,0.091 -0.284,0.223 -0.374,0.397 -0.088,0.171 -0.134,0.378 -0.136,0.62 z m 7.407,5.492 c -0.506,0 -0.941,-0.069 -1.303,-0.209 -0.36,-0.137 -0.646,-0.324 -0.859,-0.562 -0.213,-0.237 -0.351,-0.504 -0.415,-0.8 l 1.447,-0.195 c 0.044,0.113 0.114,0.218 0.209,0.316 0.095,0.098 0.221,0.176 0.378,0.235 0.159,0.061 0.353,0.092 0.58,0.092 0.34,0 0.621,-0.083 0.841,-0.25 0.223,-0.164 0.334,-0.439 0.334,-0.826 v -1.031 h -0.066 c -0.069,0.156 -0.172,0.304 -0.309,0.444 -0.137,0.139 -0.313,0.253 -0.528,0.341 -0.216,0.088 -0.473,0.132 -0.771,0.132 -0.424,0 -0.809,-0.097 -1.157,-0.293 -0.345,-0.198 -0.62,-0.501 -0.826,-0.907 -0.203,-0.409 -0.304,-0.925 -0.304,-1.549 0,-0.639 0.104,-1.173 0.312,-1.601 0.208,-0.428 0.484,-0.749 0.829,-0.962 0.348,-0.213 0.729,-0.319 1.142,-0.319 0.316,0 0.58,0.054 0.793,0.161 0.213,0.106 0.384,0.238 0.514,0.397 0.132,0.157 0.234,0.311 0.305,0.463 h 0.059 v -0.948 h 1.552 v 5.694 c 0,0.48 -0.117,0.881 -0.352,1.204 -0.235,0.324 -0.56,0.566 -0.977,0.727 -0.413,0.164 -0.889,0.246 -1.428,0.246 z m 0.033,-3.487 c 0.253,0 0.465,-0.063 0.639,-0.188 0.176,-0.127 0.311,-0.308 0.404,-0.543 0.096,-0.237 0.143,-0.521 0.143,-0.852 0,-0.33 -0.046,-0.616 -0.139,-0.859 -0.093,-0.244 -0.228,-0.434 -0.404,-0.569 -0.176,-0.134 -0.39,-0.202 -0.643,-0.202 -0.257,0 -0.473,0.07 -0.649,0.21 -0.177,0.137 -0.31,0.328 -0.4,0.572 -0.091,0.245 -0.136,0.528 -0.136,0.848 0,0.326 0.045,0.607 0.136,0.845 0.093,0.235 0.226,0.417 0.4,0.547 0.176,0.127 0.392,0.191 0.649,0.191 z m 5.577,1.362 c -0.36,0 -0.68,-0.063 -0.962,-0.188 -0.281,-0.127 -0.504,-0.314 -0.668,-0.561 -0.162,-0.25 -0.242,-0.561 -0.242,-0.933 0,-0.313 0.057,-0.576 0.172,-0.789 0.115,-0.213 0.272,-0.384 0.47,-0.514 0.198,-0.13 0.424,-0.228 0.676,-0.294 0.254,-0.066 0.521,-0.112 0.8,-0.139 0.328,-0.034 0.592,-0.066 0.793,-0.096 0.201,-0.031 0.346,-0.078 0.437,-0.139 0.09,-0.061 0.136,-0.152 0.136,-0.272 v -0.022 c 0,-0.232 -0.074,-0.412 -0.221,-0.539 -0.144,-0.128 -0.35,-0.191 -0.616,-0.191 -0.282,0 -0.506,0.062 -0.672,0.187 -0.167,0.122 -0.277,0.276 -0.331,0.462 l -1.446,-0.117 c 0.073,-0.343 0.218,-0.639 0.433,-0.888 0.215,-0.253 0.493,-0.446 0.833,-0.58 0.343,-0.138 0.74,-0.206 1.19,-0.206 0.313,0 0.613,0.037 0.899,0.11 0.289,0.074 0.545,0.187 0.768,0.341 0.225,0.155 0.402,0.353 0.532,0.595 0.13,0.24 0.194,0.528 0.194,0.863 v 3.803 h -1.483 v -0.782 h -0.044 c -0.09,0.177 -0.211,0.332 -0.363,0.467 -0.152,0.132 -0.334,0.236 -0.547,0.312 -0.213,0.073 -0.459,0.11 -0.738,0.11 z m 0.448,-1.08 c 0.23,0 0.433,-0.045 0.609,-0.135 0.176,-0.093 0.315,-0.218 0.415,-0.375 0.1,-0.157 0.151,-0.334 0.151,-0.532 v -0.599 c -0.049,0.032 -0.117,0.062 -0.202,0.089 -0.084,0.024 -0.178,0.047 -0.283,0.069 -0.105,0.02 -0.21,0.038 -0.316,0.055 -0.105,0.015 -0.2,0.028 -0.286,0.041 -0.184,0.027 -0.344,0.069 -0.481,0.128 -0.137,0.059 -0.244,0.138 -0.319,0.239 -0.076,0.098 -0.114,0.22 -0.114,0.367 0,0.213 0.077,0.376 0.231,0.488 0.157,0.11 0.355,0.165 0.595,0.165 z m 3.941,3.088 v -7.754 h 1.542 v 0.948 h 0.069 c 0.069,-0.152 0.168,-0.306 0.298,-0.463 0.132,-0.159 0.303,-0.291 0.514,-0.397 0.213,-0.107 0.477,-0.161 0.793,-0.161 0.411,0 0.79,0.108 1.138,0.323 0.347,0.213 0.625,0.535 0.833,0.966 0.208,0.428 0.312,0.965 0.312,1.611 0,0.629 -0.101,1.16 -0.305,1.593 -0.2,0.431 -0.474,0.758 -0.822,0.981 -0.345,0.22 -0.732,0.33 -1.16,0.33 -0.303,0 -0.562,-0.05 -0.775,-0.15 -0.21,-0.101 -0.383,-0.227 -0.517,-0.379 -0.135,-0.154 -0.238,-0.309 -0.309,-0.466 h -0.047 v 3.018 z m 1.531,-4.934 c 0,0.335 0.046,0.628 0.139,0.877 0.093,0.25 0.228,0.444 0.404,0.584 0.176,0.137 0.39,0.206 0.642,0.206 0.255,0 0.47,-0.07 0.647,-0.21 0.176,-0.142 0.309,-0.337 0.4,-0.587 0.093,-0.252 0.139,-0.542 0.139,-0.87 0,-0.326 -0.045,-0.612 -0.136,-0.859 -0.09,-0.247 -0.224,-0.441 -0.4,-0.58 -0.176,-0.14 -0.393,-0.21 -0.65,-0.21 -0.254,0 -0.469,0.068 -0.646,0.202 -0.173,0.135 -0.307,0.326 -0.4,0.573 -0.093,0.247 -0.139,0.539 -0.139,0.874 z m 7.559,2.929 c -0.571,0 -1.064,-0.121 -1.48,-0.363 -0.414,-0.245 -0.733,-0.585 -0.958,-1.021 -0.225,-0.438 -0.338,-0.946 -0.338,-1.523 0,-0.583 0.113,-1.092 0.338,-1.527 0.225,-0.438 0.544,-0.779 0.958,-1.021 0.416,-0.245 0.909,-0.367 1.48,-0.367 0.57,0 1.062,0.122 1.475,0.367 0.416,0.242 0.737,0.583 0.962,1.021 0.225,0.435 0.338,0.944 0.338,1.527 0,0.577 -0.113,1.085 -0.338,1.523 -0.225,0.436 -0.546,0.776 -0.962,1.021 -0.413,0.242 -0.905,0.363 -1.475,0.363 z m 0.007,-1.211 c 0.259,0 0.476,-0.074 0.65,-0.22 0.173,-0.15 0.304,-0.353 0.393,-0.61 0.09,-0.257 0.135,-0.549 0.135,-0.877 0,-0.328 -0.045,-0.621 -0.135,-0.878 -0.089,-0.257 -0.22,-0.46 -0.393,-0.609 -0.174,-0.149 -0.391,-0.224 -0.65,-0.224 -0.262,0 -0.482,0.075 -0.661,0.224 -0.176,0.149 -0.309,0.352 -0.4,0.609 -0.088,0.257 -0.132,0.55 -0.132,0.878 0,0.328 0.044,0.62 0.132,0.877 0.091,0.257 0.224,0.46 0.4,0.61 0.179,0.146 0.399,0.22 0.661,0.22 z m 3.785,1.101 v -5.639 h 1.516 v 0.984 h 0.059 c 0.103,-0.35 0.275,-0.614 0.517,-0.793 0.243,-0.181 0.522,-0.271 0.837,-0.271 0.079,0 0.163,0.004 0.254,0.014 0.09,0.01 0.17,0.024 0.238,0.041 v 1.387 c -0.073,-0.022 -0.175,-0.041 -0.304,-0.058 -0.13,-0.018 -0.249,-0.026 -0.356,-0.026 -0.23,0 -0.436,0.05 -0.617,0.15 -0.179,0.098 -0.321,0.235 -0.426,0.412 -0.103,0.176 -0.154,0.379 -0.154,0.609 v 3.19 z m 6.537,0.11 c -0.58,0 -1.079,-0.117 -1.498,-0.352 -0.416,-0.237 -0.736,-0.573 -0.961,-1.006 -0.226,-0.436 -0.338,-0.951 -0.338,-1.545 0,-0.581 0.112,-1.09 0.338,-1.528 0.225,-0.438 0.542,-0.779 0.95,-1.024 0.412,-0.245 0.894,-0.367 1.447,-0.367 0.372,0 0.718,0.06 1.039,0.18 0.323,0.117 0.604,0.295 0.844,0.532 0.242,0.238 0.431,0.536 0.566,0.896 0.134,0.357 0.201,0.776 0.201,1.255 v 0.43 h -4.761 v -0.969 h 3.289 c 0,-0.225 -0.049,-0.425 -0.147,-0.599 -0.097,-0.173 -0.233,-0.309 -0.407,-0.407 -0.171,-0.1 -0.371,-0.151 -0.598,-0.151 -0.238,0 -0.448,0.055 -0.632,0.166 -0.181,0.107 -0.323,0.253 -0.426,0.436 -0.102,0.182 -0.155,0.383 -0.158,0.606 v 0.922 c 0,0.279 0.052,0.52 0.155,0.723 0.105,0.203 0.253,0.36 0.444,0.47 0.191,0.11 0.417,0.165 0.679,0.165 0.174,0 0.333,-0.025 0.477,-0.073 0.145,-0.049 0.268,-0.123 0.371,-0.221 0.103,-0.098 0.181,-0.218 0.235,-0.359 l 1.446,0.095 c -0.073,0.347 -0.224,0.651 -0.451,0.91 -0.225,0.257 -0.517,0.458 -0.874,0.602 -0.355,0.142 -0.765,0.213 -1.23,0.213 z"
     fill="#ffffff"
     id="path346" />
  <text
     xml:space="preserve"
     style="font-size:10.6667px;fill:#f9f9f9"
     x="112.74625"
     y="81.447609"
     id="text350"><tspan
       sodipodi:role="line"
       id="tspan350"
       x="112.74625"
       y="81.447609"
       style="font-weight:bold;font-size:10.6667px">USA</tspan></text>
  <path
     d="m 753.05494,129.24784 -0.489,-6.7397 h -16.758 l -0.491,6.7397 c 4.924,1.761 8.87,9.4519 8.87,14.254 0,-4.8048 3.944,-12.493 8.868,-14.254 z"
     fill="#4cd9ed"
     id="path323-8"
     style="fill:#008000" />
  <path
     d="m 744.17894,228.08984 c -1.621,0 -2.937,0.918 -2.937,2.05 0,1.133 1.318,2.051 2.937,2.051 1.618,0 2.936,-0.921 2.936,-2.051 0,-1.129 -1.318,-2.05 -2.936,-2.05 z"
     fill="#4cd9ed"
     id="path324-1"
     style="fill:#008000" />
  <path
     d="m 744.17894,224.68584 c -4.092,0 -7.418,2.445 -7.418,5.454 0,3.009 3.326,5.454 7.418,5.454 4.092,0 7.418,-2.445 7.418,-5.454 0,-3.009 -3.326,-5.454 -7.418,-5.454 z m 0,8.756 c -2.395,0 -4.343,-1.482 -4.343,-3.302 0,-1.82 1.948,-3.302 4.343,-3.302 2.395,0 4.341,1.48 4.341,3.302 0,1.822 -1.949,3.302 -4.341,3.302 z"
     fill="#3d93fa"
     id="path325-5"
     style="fill:#008000" />
  <path
     d="m 744.17894,226.83784 c -2.395,0 -4.343,1.48 -4.343,3.302 0,1.822 1.948,3.302 4.343,3.302 2.395,0 4.34,-1.482 4.34,-3.302 0,-1.82 -1.948,-3.302 -4.34,-3.302 z m 0,5.352 c -1.621,0 -2.937,-0.921 -2.937,-2.05 0,-1.13 1.318,-2.051 2.937,-2.051 1.619,0 2.936,0.919 2.936,2.051 0,1.132 -1.317,2.05 -2.936,2.05 z"
     fill="#ffffff"
     id="path326-6" />
  <path
     d="m 744.45394,128.26594 v 101.2409"
     stroke="#4cd9ed"
     stroke-width="1.0338"
     id="path327-1"
     style="fill:#008000;stroke:#1c7e0f;stroke-opacity:1" />
  <rect
     x="704.79828"
     y="104.33002"
     width="80.840546"
     height="27.337999"
     rx="21.383457"
     fill="#4cd9ed"
     id="rect327-5"
     style="stroke-width:1.25075;fill:#008000" />
  <text
     xml:space="preserve"
     style="font-size:10.6754px;fill:#f9f9f9;stroke-width:1.00082"
     x="762.01819"
     y="113.57339"
     id="text350-0"
     transform="scale(0.93620853,1.0681381)"><tspan
       sodipodi:role="line"
       id="tspan350-0"
       x="762.01819"
       y="113.57339"
       style="font-weight:bold;font-size:10.6754px;stroke-width:1.00082">   Bangladesh</tspan></text>
  <text
     xml:space="preserve"
     style="font-size:10.6667px;fill:#f9f9f9"
     x="414.71387"
     y="24.646425"
     id="text351"><tspan
       sodipodi:role="line"
       id="tspan351"
       x="414.71387"
       y="24.646425"
       style="font-weight:bold;font-size:10.6667px">UK</tspan></text>
  <path
     d="m 423.2069,129.10806 c -1.621,0 -2.937,0.919 -2.937,2.051 0,1.132 1.318,2.051 2.937,2.051 1.619,0 2.937,-0.921 2.937,-2.051 0,-1.13 -1.318,-2.051 -2.937,-2.051 z"
     fill="#4cd9ed"
     id="path338-9"
     style="fill:#008000" />
</svg>
